<svg width="1280" height="832" viewBox="0 0 1280 832" fill="none" xmlns="http://www.w3.org/2000/svg">
<g clip-path="url(#clip0_101_54)">
<path d="M471 842.519V856H74V842.459L76.1016 840.594L201.997 731.605C203.998 729.92 207.801 729.499 210.603 730.642C211.204 730.883 211.704 731.184 212.204 731.605L296.568 804.665L356.614 753.09C358.615 751.405 362.418 750.984 365.22 752.187C365.821 752.428 366.321 752.729 366.721 753.09L468.698 840.654L471 842.519Z" fill="#3F3D56"/>
<path d="M745.19 823.957V846.835H348.309V823.855L350.41 820.688L476.267 635.724C478.268 632.864 482.07 632.149 484.871 634.09C485.472 634.498 485.972 635.009 486.472 635.724L570.811 759.714L630.838 672.186C632.839 669.326 636.64 668.611 639.442 670.654C640.042 671.062 640.542 671.573 640.942 672.186L742.889 820.791L745.19 823.957Z" fill="#3F3D56"/>
<path d="M1022 811.644V837H625V811.53L627.102 808.021L752.997 603.019C754.998 599.85 758.801 599.057 761.603 601.208C762.204 601.661 762.704 602.227 763.204 603.019L847.568 740.442L907.614 643.431C909.615 640.261 913.418 639.469 916.22 641.733C916.821 642.186 917.321 642.752 917.721 643.431L1019.7 808.134L1022 811.644Z" fill="#3F3D56"/>
<path d="M361.5 807C366.178 807 370.856 808.385 375 811H348C352.144 808.385 356.822 807 361.5 807Z" fill="#FF731D"/>
<path d="M316.5 804C324.188 804 331.745 806.423 338 811H295C301.255 806.558 308.682 804 316.5 804Z" fill="#FF731D"/>
<path d="M22.0967 759.65C24.2897 720.068 56.927 689.847 95.1111 692.12C124.781 693.859 149.936 714.987 157.934 744.539C158.837 744.539 159.611 744.539 160.514 744.539C191.217 744.539 218.307 765.534 226.95 796.022C247.332 786.796 271.197 792.947 285 810.999H69.053C43.2529 811.133 22.2257 789.47 22.0967 762.592C22.0967 761.923 22.0967 761.388 22.0967 760.72C21.9677 760.319 21.9677 760.051 22.0967 759.65Z" fill="#FF731D"/>
<path d="M978.097 722.65C980.29 683.068 1012.93 652.847 1051.11 655.12C1080.78 656.859 1105.94 677.987 1113.93 707.539C1114.84 707.539 1115.61 707.539 1116.51 707.539C1147.22 707.539 1174.31 728.534 1182.95 759.022C1203.33 749.796 1227.2 755.947 1241 773.999H1025.05C999.253 774.133 978.226 752.47 978.097 725.592C978.097 724.923 978.097 724.388 978.097 723.72C977.968 723.319 977.968 723.051 978.097 722.65Z" fill="#FF731D"/>
<path d="M1305 823.519V837H908V823.459L910.102 821.594L1036 712.605C1038 710.92 1041.8 710.499 1044.6 711.642C1045.2 711.883 1045.7 712.184 1046.2 712.605L1130.57 785.665L1190.61 734.09C1192.62 732.405 1196.42 731.984 1199.22 733.187C1199.82 733.428 1200.32 733.729 1200.72 734.09L1302.7 821.654L1305 823.519Z" fill="#3F3D56"/>
</g>
<defs>
<clipPath id="clip0_101_54">
<rect width="1280" height="832" fill="white"/>
</clipPath>
</defs>
</svg>
