<svg width="431" height="488" viewBox="0 0 431 488" fill="none" xmlns="http://www.w3.org/2000/svg">
<g clip-path="url(#clip0_2_2)">
<g filter="url(#filter0_d_2_2)">
<path d="M6.21281 326.082C4.98346 326.082 4 327.065 4 328.295V477.69C4 478.919 4.98346 479.903 6.21281 479.903H214.464C215.693 479.903 216.677 478.919 216.677 477.69V328.213C216.677 326.983 215.693 326 214.464 326H6.21281V326.082Z" fill="#E6E6E6"/>
</g>
<path d="M202.908 339.44V445.647C202.908 447.122 201.679 448.352 200.203 448.352H19.8994C19.7355 448.352 19.6535 448.352 19.4896 448.352C18.1783 448.188 17.1948 447.04 17.1948 445.729V339.44C17.1948 337.965 18.4242 336.735 19.8994 336.735H200.203C201.679 336.735 202.908 337.965 202.908 339.44Z" fill="#FFFBF4"/>
<path d="M165.536 385.332C170.877 385.332 175.207 381.002 175.207 375.662C175.207 370.321 170.877 365.992 165.536 365.992C160.195 365.992 155.865 370.321 155.865 375.662C155.865 381.002 160.195 385.332 165.536 385.332Z" fill="#FF731D"/>
<path d="M108.5 332C112.09 332 115 329.09 115 325.5C115 321.91 112.09 319 108.5 319C104.91 319 102 321.91 102 325.5C102 329.09 104.91 332 108.5 332Z" fill="#FF731D"/>
<path d="M76.6954 413.687C83.1228 413.687 88.3332 408.477 88.3332 402.05C88.3332 395.623 83.1228 390.413 76.6954 390.413C70.2681 390.413 65.0576 395.623 65.0576 402.05C65.0576 408.477 70.2681 413.687 76.6954 413.687Z" fill="#5F9DF7"/>
<path d="M77.7607 437.043H75.384L76.4495 400.329L77.7607 437.043Z" fill="#3F3D56"/>
<path d="M76.6955 407.295L79.2361 403.771L76.6955 408.196L76.3677 407.704L76.6955 407.295Z" fill="#3F3D56"/>
<path d="M76.4493 410.9L73.8267 407.294L76.4493 411.72L76.6951 411.228L76.4493 410.9Z" fill="#3F3D56"/>
<path d="M183.238 413.687C189.666 413.687 194.876 408.477 194.876 402.05C194.876 395.623 189.666 390.413 183.238 390.413C176.811 390.413 171.601 395.623 171.601 402.05C171.601 408.477 176.811 413.687 183.238 413.687Z" fill="#5F9DF7"/>
<path d="M184.386 437.043H182.009L183.075 400.329L184.386 437.043Z" fill="#3F3D56"/>
<path d="M183.321 407.295L185.861 403.771L183.239 408.196L182.993 407.704L183.321 407.295Z" fill="#3F3D56"/>
<path d="M182.993 410.9L180.452 407.294L183.075 411.72L183.321 411.228L182.993 410.9Z" fill="#3F3D56"/>
<path d="M110.297 409.097C119.757 409.097 127.426 401.429 127.426 391.97C127.426 382.511 119.757 374.842 110.297 374.842C100.837 374.842 93.1685 382.511 93.1685 391.97C93.1685 401.429 100.837 409.097 110.297 409.097Z" fill="#5F9DF7"/>
<path d="M112.019 443.599H108.494L110.052 389.348L112.019 443.599Z" fill="#3F3D56"/>
<path d="M110.379 399.673L114.149 394.428L110.297 400.903L109.888 400.247L110.379 399.673Z" fill="#3F3D56"/>
<path d="M109.97 404.918L106.2 399.673L110.052 406.229L110.461 405.492L109.97 404.918Z" fill="#3F3D56"/>
<path d="M152.177 402.541C161.637 402.541 169.306 394.873 169.306 385.414C169.306 375.954 161.637 368.286 152.177 368.286C142.717 368.286 135.048 375.954 135.048 385.414C135.048 394.873 142.717 402.541 152.177 402.541Z" fill="#5F9DF7"/>
<path d="M153.816 437.043H150.292L151.931 382.792L153.816 437.043Z" fill="#3F3D56"/>
<path d="M152.259 393.117L156.029 387.872L152.177 394.346L151.768 393.691L152.259 393.117Z" fill="#3F3D56"/>
<path d="M151.849 398.362L148.079 393.117L151.849 399.673L152.259 398.936L151.849 398.362Z" fill="#3F3D56"/>
<path d="M43.585 402.541C53.045 402.541 60.7138 394.873 60.7138 385.414C60.7138 375.954 53.045 368.286 43.585 368.286C34.1249 368.286 26.4561 375.954 26.4561 385.414C26.4561 394.873 34.1249 402.541 43.585 402.541Z" fill="#5F9DF7"/>
<path d="M45.3059 437.043H41.7817L43.3389 382.792L45.3059 437.043Z" fill="#3F3D56"/>
<path d="M43.667 393.117L47.437 387.872L43.5851 394.346L43.1753 393.691L43.667 393.117Z" fill="#3F3D56"/>
<path d="M43.2573 398.362L39.4873 393.117L43.3392 399.673L43.749 398.936L43.2573 398.362Z" fill="#3F3D56"/>
<path d="M111.281 448.27H19.8994C19.7355 448.27 19.6535 448.27 19.4896 448.27C18.1783 448.106 17.1948 446.958 17.1948 445.647V422.865C25.8002 421.472 34.4876 420.734 43.175 420.734C75.6297 420.734 102.757 429.995 109.56 442.451C110.625 444.254 111.199 446.221 111.281 448.27Z" fill="#403D56"/>
<path d="M202.908 440.484V445.647C202.908 447.122 201.679 448.352 200.204 448.352H99.1514C102.43 445.975 105.954 444.008 109.642 442.451C122.017 437.124 139.474 433.846 158.816 433.846C175.617 433.846 191.024 436.305 202.908 440.484Z" fill="#3F3D56"/>
<g filter="url(#filter1_d_2_2)">
<path d="M384.838 331.249C385.986 331.577 387.215 330.84 387.461 329.692L425.98 185.214C426.308 184.067 425.571 182.838 424.423 182.592L223.22 129.078C222.073 128.75 220.844 129.488 220.598 130.635L182.078 275.032C181.75 276.179 182.488 277.408 183.635 277.654L384.838 331.249Z" fill="#E6E6E6"/>
</g>
<path d="M409.835 192.508L382.544 295.109C382.134 296.502 380.741 297.404 379.265 296.994L205.026 250.692C204.944 250.692 204.78 250.61 204.698 250.528C203.469 250.037 202.813 248.644 203.141 247.414L230.433 144.813C230.842 143.419 232.236 142.518 233.711 142.928L407.95 189.312C409.425 189.639 410.245 191.115 409.835 192.508Z" fill="#FFFBF4"/>
<path d="M386.396 280.604L382.544 295.191C382.134 296.584 380.741 297.486 379.265 297.076L205.026 250.692C204.944 250.692 204.78 250.61 204.698 250.528C203.469 250.037 202.813 248.644 203.141 247.414L206.993 232.827L386.396 280.604Z" fill="#3F3D56"/>
<path d="M281.726 262.065L280.883 265.232L308.604 272.607L309.447 269.439L281.726 262.065Z" fill="#CCCCCC"/>
<path d="M217.961 245.108L217.119 248.276L244.84 255.651L245.682 252.483L217.961 245.108Z" fill="#CCCCCC"/>
<path d="M345.491 279.02L344.648 282.188L372.369 289.563L373.212 286.395L345.491 279.02Z" fill="#CCCCCC"/>
<path d="M344.293 271.493L343.638 273.948L359.081 278.064L359.736 275.609L344.293 271.493Z" fill="#3F3D56"/>
<path d="M232.727 242.415L235.678 243.972L356.481 276.179L358.203 273.966C361.235 270.115 363.202 265.525 363.776 260.69C364.185 257.084 363.776 253.233 361.235 250.938L365.333 213.815L298.62 195.868L267.231 209.881C267.231 209.881 255.101 206.439 246.25 212.913C243.054 215.372 240.677 218.65 239.366 222.501L237.973 226.763L232.727 242.415Z" fill="#FF731D"/>
<path d="M259.363 264.296C267.873 264.296 274.771 257.398 274.771 248.89C274.771 240.381 267.873 233.483 259.363 233.483C250.854 233.483 243.955 240.381 243.955 248.89C243.955 257.398 250.854 264.296 259.363 264.296Z" fill="#3F3D56"/>
<path d="M259.363 257.002C263.844 257.002 267.477 253.37 267.477 248.889C267.477 244.409 263.844 240.776 259.363 240.776C254.882 240.776 251.25 244.409 251.25 248.889C251.25 253.37 254.882 257.002 259.363 257.002Z" fill="#CCCCCC"/>
<path d="M332.96 283.882C341.47 283.882 348.368 276.984 348.368 268.475C348.368 259.967 341.47 253.069 332.96 253.069C324.451 253.069 317.552 259.967 317.552 268.475C317.552 276.984 324.451 283.882 332.96 283.882Z" fill="#3F3D56"/>
<path d="M332.96 276.588C337.441 276.588 341.074 272.956 341.074 268.475C341.074 263.995 337.441 260.362 332.96 260.362C328.479 260.362 324.846 263.995 324.846 268.475C324.846 272.956 328.479 276.588 332.96 276.588Z" fill="#CCCCCC"/>
<path d="M278.131 210.127L314.192 219.715L318.618 220.944L325.994 222.911L326.158 222.338L327.879 215.864L329.846 208.488L324.928 207.177L320.503 206.03L312.717 203.899L308.291 202.752L299.276 200.375L278.131 210.127Z" fill="white"/>
<path d="M331.895 224.468L350.99 229.549L351.974 225.779L353.695 219.305L354.842 215.126L352.056 214.388L347.63 213.241L335.746 210.045L331.895 224.468Z" fill="white"/>
<path d="M320.735 232.937L319.49 237.609L321.945 238.263L323.19 233.591L320.735 232.937Z" fill="#3F3D56"/>
<path d="M282.186 215.613L281.532 218.067L286.204 219.313L286.859 216.858L282.186 215.613Z" fill="#3F3D56"/>
<path d="M284.77 217.503L284.524 217.421C281.737 216.683 280.016 213.733 280.754 210.947C281.491 208.16 284.442 206.439 287.228 207.177L287.474 207.259L284.77 217.503Z" fill="#3F3D56"/>
<path d="M237.891 226.681C242.07 228.32 246.824 226.189 248.463 222.01C249.692 218.814 248.791 215.126 246.168 212.913C242.972 215.372 240.595 218.65 239.284 222.501L237.891 226.681Z" fill="#3F3D56"/>
<path d="M320.502 206.029L326.157 222.337L327.879 215.863L324.928 207.177L320.502 206.029Z" fill="#F2F2F2"/>
<path d="M347.63 213.241L351.974 225.78L353.695 219.305L352.056 214.388L347.63 213.241Z" fill="#F2F2F2"/>
<path d="M308.291 202.751L314.192 219.715L318.617 220.944L312.717 203.899L308.291 202.751Z" fill="#F2F2F2"/>
<g filter="url(#filter2_d_2_2)">
<path d="M280.972 0.488414C280.672 0.355346 280.265 0.263923 279.973 0.313913L72.2861 15.0462C71.0795 15.138 70.1727 16.17 70.2646 17.3765L80.824 166.435C80.9159 167.641 81.948 168.548 83.1546 168.456L290.842 153.724C292.049 153.632 292.955 152.6 292.863 151.393L282.304 2.33536C282.279 1.78619 281.996 1.21212 281.538 0.829462C281.421 0.688033 281.197 0.588215 280.972 0.488414Z" fill="#E6E6E6"/>
</g>
<path d="M269.468 14.4783L276.953 120.385C277.02 121.849 275.905 123.148 274.515 123.248L94.6207 135.977C94.5125 136.019 94.3627 135.952 94.2545 135.994C92.9647 135.869 91.891 134.854 91.7575 133.54L84.1973 27.5997C84.1304 26.1352 85.2451 24.8369 86.6347 24.7368L266.529 12.0077C268.027 11.8659 269.326 12.9806 269.468 14.4783Z" fill="#FFFBF4"/>
<path d="M151.815 74.1551C158.897 63.3195 155.853 48.7944 145.017 41.7124C134.18 34.6304 119.654 37.6733 112.573 48.5089C105.491 59.3445 108.535 73.8695 119.371 80.9515C130.208 88.0335 144.733 84.9907 151.815 74.1551Z" fill="#FF731D"/>
<path d="M210.717 128.18L95.9188 136.285C95.7358 136.293 95.6276 136.335 95.4778 136.268L143.098 38.3373C144.038 36.4233 146.276 35.624 148.191 36.5639C148.79 36.83 149.364 37.3541 149.755 37.8865L190.68 98.387L192.611 101.307L210.717 128.18Z" fill="#3F3D56"/>
<path opacity="0.2" d="M210.717 128.18L171.516 131.034L188.775 101.666L189.998 99.5188L190.613 98.5368L192.578 101.382L210.717 128.18Z" fill="black"/>
<path d="M274.607 123.647L175.353 130.675L192.578 101.382L193.8 99.235L216.307 61.0788C217.771 58.5905 221.749 58.1153 223.821 60.1119C223.938 60.2533 224.054 60.3947 224.171 60.5362L274.607 123.647Z" fill="#3F3D56"/>
<path d="M179 18C182.866 18 186 14.866 186 11C186 7.134 182.866 4 179 4C175.134 4 172 7.134 172 11C172 14.866 175.134 18 179 18Z" fill="#FF731D"/>
<path d="M332 165C335.866 165 339 161.866 339 158C339 154.134 335.866 151 332 151C328.134 151 325 154.134 325 158C325 161.866 328.134 165 332 165Z" fill="#FF731D"/>
</g>
<defs>
<filter id="filter0_d_2_2" x="0" y="326" width="220.677" height="161.903" filterUnits="userSpaceOnUse" color-interpolation-filters="sRGB">
<feFlood flood-opacity="0" result="BackgroundImageFix"/>
<feColorMatrix in="SourceAlpha" type="matrix" values="0 0 0 0 0 0 0 0 0 0 0 0 0 0 0 0 0 0 127 0" result="hardAlpha"/>
<feOffset dy="4"/>
<feGaussianBlur stdDeviation="2"/>
<feComposite in2="hardAlpha" operator="out"/>
<feColorMatrix type="matrix" values="0 0 0 0 0 0 0 0 0 0 0 0 0 0 0 0 0 0 0.25 0"/>
<feBlend mode="normal" in2="BackgroundImageFix" result="effect1_dropShadow_2_2"/>
<feBlend mode="normal" in="SourceGraphic" in2="effect1_dropShadow_2_2" result="shape"/>
</filter>
<filter id="filter1_d_2_2" x="178" y="129" width="252.059" height="210.328" filterUnits="userSpaceOnUse" color-interpolation-filters="sRGB">
<feFlood flood-opacity="0" result="BackgroundImageFix"/>
<feColorMatrix in="SourceAlpha" type="matrix" values="0 0 0 0 0 0 0 0 0 0 0 0 0 0 0 0 0 0 127 0" result="hardAlpha"/>
<feOffset dy="4"/>
<feGaussianBlur stdDeviation="2"/>
<feComposite in2="hardAlpha" operator="out"/>
<feColorMatrix type="matrix" values="0 0 0 0 0 0 0 0 0 0 0 0 0 0 0 0 0 0 0.25 0"/>
<feBlend mode="normal" in2="BackgroundImageFix" result="effect1_dropShadow_2_2"/>
<feBlend mode="normal" in="SourceGraphic" in2="effect1_dropShadow_2_2" result="shape"/>
</filter>
<filter id="filter2_d_2_2" x="66.2582" y="0.300049" width="230.611" height="176.162" filterUnits="userSpaceOnUse" color-interpolation-filters="sRGB">
<feFlood flood-opacity="0" result="BackgroundImageFix"/>
<feColorMatrix in="SourceAlpha" type="matrix" values="0 0 0 0 0 0 0 0 0 0 0 0 0 0 0 0 0 0 127 0" result="hardAlpha"/>
<feOffset dy="4"/>
<feGaussianBlur stdDeviation="2"/>
<feComposite in2="hardAlpha" operator="out"/>
<feColorMatrix type="matrix" values="0 0 0 0 0 0 0 0 0 0 0 0 0 0 0 0 0 0 0.25 0"/>
<feBlend mode="normal" in2="BackgroundImageFix" result="effect1_dropShadow_2_2"/>
<feBlend mode="normal" in="SourceGraphic" in2="effect1_dropShadow_2_2" result="shape"/>
</filter>
<clipPath id="clip0_2_2">
<rect width="431" height="488" fill="white"/>
</clipPath>
</defs>
</svg>
