<svg width="19" height="19" viewBox="0 0 19 19" fill="none"
    xmlns="http://www.w3.org/2000/svg">
    <path d="M11.5555 11.5886L11.5555 1.91061C11.5555 1.11772 10.9028 0.5 10.121 0.5H8.87506C8.09333 0.5 7.44056 1.11772 7.44056 1.91061L7.44056 11.5885L3.83199 7.89742L3.83087 7.89629C3.27655 7.33289 2.35778 7.32038 1.78997 7.87368L0.927479 8.71414C0.92712 8.71449 0.92676 8.71483 0.926401 8.71518C0.356426 9.26582 0.359587 10.1669 0.92556 10.7184L8.48916 18.0887C8.48953 18.0891 8.4899 18.0895 8.49028 18.0898C9.04814 18.6381 9.95018 18.6351 10.5089 18.0906L10.509 18.0905L18.0737 10.7154C18.6436 10.1648 18.6404 9.26369 18.0744 8.71221L17.2119 7.87172C17.2116 7.87139 17.2112 7.87105 17.2109 7.87072C16.6427 7.31232 15.7223 7.32508 15.1679 7.89379C15.1677 7.89396 15.1675 7.89414 15.1673 7.89432L11.5555 11.5886Z" fill="#302E42" stroke="#302E42"/>
</svg>
