<svg width="668" height="569" viewBox="0 0 668 569" fill="none" xmlns="http://www.w3.org/2000/svg">
<g clip-path="url(#clip0_4_2)">
<path d="M421.14 77.42C414.83 90.49 403.22 100.22 391.06 108.14C378.159 116.512 364.292 123.288 349.76 128.32C347.76 129.02 345.74 129.69 343.72 130.32H257.24C256.68 129.68 256.14 129.01 255.62 128.32C250.19 121.14 247.28 112.05 248.37 103.14C249.8 91.46 258.67 80.72 270.18 78.23C281.69 75.75 294.81 82.62 298.3 93.86C300.23 72.19 302.45 49.61 313.97 31.15C324.4 14.44 342.48 2.48001 362.06 0.340012C373.576 -0.859417 385.195 1.26794 395.54 6.46996C396.49 6.94996 397.43 7.44996 398.35 7.96996C404.558 11.4899 410.036 16.1637 414.49 21.74C426.7 37.2 429.69 59.67 421.14 77.42Z" fill="#F2F2F2"/>
<path d="M398.35 7.97004C398.374 8.23251 398.329 8.49677 398.221 8.73693C398.112 8.9771 397.943 9.18493 397.73 9.3401C358.563 41.2346 327.586 82.0277 307.38 128.32C307.08 128.98 306.79 129.65 306.51 130.32H302.53C302.81 129.65 303.09 128.98 303.38 128.32C307.17 119.48 311.36 110.82 315.95 102.34C325.884 84.0312 337.572 66.7301 350.85 50.6801C364.126 34.6105 378.954 19.8893 395.12 6.73009C395.248 6.6257 395.389 6.53832 395.54 6.4701C395.821 6.34904 396.126 6.2928 396.431 6.30558C396.737 6.31836 397.036 6.39982 397.306 6.54391C397.576 6.688 397.81 6.89101 397.99 7.1379C398.171 7.38479 398.294 7.66921 398.35 7.97004Z" fill="white"/>
<path d="M400 128.32H19C15.7183 128.316 12.4922 129.168 9.63965 130.79C8.95639 131.178 8.29848 131.609 7.66992 132.08C5.28984 133.845 3.35631 136.142 2.02435 138.789C0.692403 141.435 -0.000911247 144.357 8.98869e-07 147.32V345.32C0.00447851 350.358 2.0077 355.188 5.56992 358.75C9.13214 362.312 13.9623 364.316 19 364.32H400C405.038 364.315 409.868 362.312 413.43 358.75C416.992 355.188 418.995 350.358 419 345.32V147.32C418.995 142.282 416.992 137.452 413.43 133.89C409.868 130.328 405.038 128.325 400 128.32ZM417 345.32C416.994 349.827 415.2 354.147 412.014 357.334C408.827 360.52 404.507 362.314 400 362.32H19C14.4933 362.314 10.173 360.521 6.98624 357.334C3.7995 354.147 2.00638 349.827 2 345.32V147.32C2.0142 143.727 3.15996 140.23 5.27457 137.326C7.38917 134.421 10.3651 132.257 13.7798 131.14C13.9199 131.1 14.0498 131.05 14.1899 131.01C15.752 130.551 17.3719 130.318 19 130.32H400C404.507 130.326 408.827 132.12 412.014 135.306C415.2 138.493 416.994 142.813 417 147.32V345.32Z" fill="#3F3D56"/>
<path d="M537.218 386.592C538.534 385.735 539.646 384.599 540.475 383.265C541.304 381.932 541.831 380.433 542.019 378.873C542.206 377.314 542.049 375.732 541.559 374.24C541.069 372.748 540.258 371.382 539.182 370.237L545.154 299.026L528.049 300.908L523.363 370.216C521.56 372.15 520.528 374.678 520.465 377.321C520.401 379.965 521.309 382.54 523.017 384.558C524.725 386.577 527.114 387.899 529.731 388.274C532.349 388.649 535.013 388.05 537.218 386.592Z" fill="#FFB8B8"/>
<path d="M476.337 556.443L464.077 556.442L458.245 509.154L476.339 509.155L476.337 556.443Z" fill="#FFB8B8"/>
<path d="M455.32 552.939H478.964V567.826H440.433C440.433 565.871 440.818 563.935 441.567 562.129C442.315 560.323 443.411 558.682 444.794 557.299C446.176 555.917 447.817 554.82 449.623 554.072C451.429 553.324 453.365 552.939 455.32 552.939Z" fill="#2F2E41"/>
<path d="M563.337 556.443L551.077 556.442L545.245 509.154L563.339 509.155L563.337 556.443Z" fill="#FFB8B8"/>
<path d="M542.32 552.939H565.964V567.826H527.433C527.433 563.878 529.002 560.091 531.794 557.299C534.585 554.508 538.372 552.939 542.32 552.939Z" fill="#2F2E41"/>
<path d="M476.544 527.155C476.411 527.155 476.277 527.149 476.143 527.138L458.791 525.75C458.103 525.695 457.433 525.498 456.825 525.171C456.217 524.845 455.682 524.396 455.256 523.852C454.83 523.309 454.521 522.683 454.348 522.015C454.176 521.346 454.143 520.649 454.254 519.967L480.562 357.248L482.324 334.297C482.402 333.224 482.826 332.205 483.532 331.393C484.238 330.582 485.188 330.021 486.24 329.796L512.702 324.007C513.674 323.79 514.69 323.87 515.617 324.238C516.543 324.605 517.338 325.243 517.897 326.068L524.349 335.499C526.883 339.165 529.636 342.674 532.594 346.007C537.172 351.221 544.956 362.797 545.654 381.743C545.841 387.967 546.488 394.168 547.588 400.297L568.891 515.057C568.999 515.73 568.968 516.418 568.8 517.078C568.633 517.739 568.332 518.358 567.916 518.898C567.5 519.438 566.978 519.887 566.383 520.218C565.787 520.549 565.13 520.754 564.452 520.822L548.003 522.068C546.827 522.184 545.647 521.878 544.676 521.203C543.704 520.529 543.004 519.531 542.701 518.388L513.525 409.887C513.467 409.675 513.342 409.487 513.167 409.353C512.992 409.219 512.778 409.147 512.558 409.147C512.337 409.147 512.124 409.22 511.949 409.355C511.775 409.489 511.649 409.677 511.593 409.89L481.374 523.441C481.089 524.505 480.462 525.446 479.589 526.117C478.716 526.789 477.645 527.154 476.544 527.155Z" fill="#2F2E41"/>
<path d="M522.687 250.264C536.252 250.264 547.248 239.268 547.248 225.703C547.248 212.138 536.252 201.142 522.687 201.142C509.122 201.142 498.126 212.138 498.126 225.703C498.126 239.268 509.122 250.264 522.687 250.264Z" fill="#FFB8B8"/>
<path d="M481.057 337.989L480.549 302.915C478.678 280.482 488.613 268.704 497.277 262.779C499.511 261.271 502.028 260.232 504.676 259.725C507.324 259.218 510.047 259.254 512.68 259.831L532.01 264.009C534.701 264.596 537.246 265.722 539.49 267.32C541.734 268.918 543.63 270.955 545.065 273.306C546.437 275.525 547.337 278.003 547.711 280.584C548.085 283.166 547.923 285.797 547.237 288.314C545.894 293.025 542.916 297.103 538.837 299.816C522.229 311.541 521.058 331.235 521.048 331.433L521.028 331.84L481.057 337.989Z" fill="#FF731D"/>
<path d="M541.549 311.908H524.549C523.356 311.907 522.212 311.432 521.369 310.588C520.525 309.745 520.05 308.601 520.049 307.408V277.908C520.049 274.46 521.419 271.153 523.857 268.715C526.295 266.278 529.601 264.908 533.049 264.908C536.497 264.908 539.804 266.278 542.242 268.715C544.679 271.153 546.049 274.46 546.049 277.908V307.408C546.048 308.601 545.573 309.745 544.73 310.588C543.886 311.432 542.742 311.907 541.549 311.908Z" fill="#FF731D"/>
<path d="M427.411 317.481C426.409 318.676 425.166 319.646 423.763 320.326C422.36 321.006 420.828 321.381 419.27 321.426C417.711 321.471 416.16 321.185 414.72 320.587C413.28 319.99 411.983 319.094 410.914 317.958C401.228 307.799 417.062 292.545 426.785 302.726C427.128 303.077 427.446 303.451 427.738 303.846L476.766 302.627L482.618 291.924L500.603 298.908C497.15 304.262 493.185 325.277 484.155 324.254C482.971 324.286 428.622 317.567 427.411 317.481Z" fill="#FFB8B8"/>
<path d="M492.998 309.382L479.293 299.324C478.332 298.618 477.69 297.558 477.509 296.379C477.328 295.2 477.622 293.997 478.327 293.034L495.781 269.251C496.791 267.875 498.062 266.711 499.522 265.826C500.982 264.941 502.602 264.352 504.289 264.093C505.977 263.834 507.699 263.91 509.357 264.317C511.015 264.723 512.577 265.452 513.953 266.462C515.329 267.472 516.493 268.744 517.378 270.204C518.263 271.663 518.852 273.283 519.111 274.971C519.37 276.658 519.294 278.38 518.888 280.038C518.481 281.696 517.752 283.258 516.742 284.634L499.288 308.417C498.581 309.378 497.522 310.019 496.343 310.2C495.163 310.381 493.961 310.087 492.998 309.382Z" fill="#FF731D"/>
<path d="M527.606 238.469C528.399 236.816 528.674 234.961 528.396 233.149C528.117 231.336 527.298 229.65 526.046 228.31C521.426 223.652 514.207 226.759 507.962 226.303C497.561 225.543 490.477 213.14 493.582 203.183C496.687 193.227 507.724 187.049 518.132 187.704C528.541 188.359 537.964 194.798 544.238 203.129C548.532 196.218 559.081 195.412 565.889 199.867C572.698 204.322 576.22 212.463 577.676 220.468C579.132 228.473 578.894 236.7 580.12 244.743C583.092 264.24 595.675 282.6 613.883 290.178C632.091 297.757 655.391 292.887 667.303 277.168C669.619 296.217 665.556 315.496 655.749 331.989C645.942 348.482 630.944 361.26 613.102 368.322C603.235 372.227 592.339 374.301 581.951 372.13C565.182 368.626 552.138 354.284 546.453 338.122C540.768 321.961 541.449 304.228 544.21 287.32C545.91 276.905 547.794 264.572 540.198 257.247C538.066 255.472 535.557 254.207 532.863 253.548C531.434 253.119 530.122 252.369 529.027 251.356C527.932 250.343 527.082 249.094 526.543 247.702C526.004 246.311 525.79 244.816 525.917 243.329C526.043 241.843 526.508 240.405 527.274 239.125C527.397 238.907 527.508 238.689 527.606 238.469Z" fill="#2F2E41"/>
<path d="M615.779 568.25H387.779C387.514 568.25 387.26 568.145 387.072 567.957C386.885 567.77 386.779 567.515 386.779 567.25C386.779 566.985 386.885 566.73 387.072 566.543C387.26 566.355 387.514 566.25 387.779 566.25H615.779C616.044 566.25 616.299 566.355 616.486 566.543C616.674 566.73 616.779 566.985 616.779 567.25C616.779 567.515 616.674 567.77 616.486 567.957C616.299 568.145 616.044 568.25 615.779 568.25Z" fill="#3F3D56"/>
<path d="M209.083 246.236C207.566 246.235 206.073 245.85 204.745 245.117L5.70136 135.565C5.46904 135.437 5.29703 135.222 5.22318 134.967C5.14933 134.712 5.17968 134.439 5.30756 134.206C5.43544 133.974 5.65039 133.802 5.9051 133.728C6.1598 133.654 6.43339 133.685 6.66572 133.813L205.709 243.365C206.724 243.926 207.863 244.225 209.022 244.235C210.182 244.245 211.326 243.966 212.35 243.424L414.67 136.694C414.786 136.633 414.913 136.595 415.044 136.582C415.175 136.57 415.307 136.584 415.433 136.622C415.558 136.661 415.675 136.724 415.776 136.808C415.878 136.892 415.961 136.995 416.023 137.111C416.084 137.227 416.122 137.355 416.134 137.486C416.146 137.616 416.132 137.748 416.093 137.874C416.054 138 415.991 138.116 415.907 138.217C415.823 138.318 415.719 138.402 415.603 138.463L213.283 245.192C211.989 245.877 210.548 246.235 209.083 246.236Z" fill="#3F3D56"/>
<path d="M63.5666 314.32H35.5666C33.4449 314.32 31.4101 313.477 29.9098 311.977C28.4095 310.476 27.5666 308.442 27.5666 306.32C27.5666 304.198 28.4095 302.163 29.9098 300.663C31.4101 299.163 33.4449 298.32 35.5666 298.32H63.5666C65.6884 298.32 67.7232 299.163 69.2235 300.663C70.7238 302.163 71.5666 304.198 71.5666 306.32C71.5666 308.442 70.7238 310.476 69.2235 311.977C67.7232 313.477 65.6884 314.32 63.5666 314.32Z" fill="#3F3D56"/>
<path d="M96.5666 341.32H35.5666C33.4449 341.32 31.4101 340.477 29.9098 338.977C28.4095 337.476 27.5666 335.442 27.5666 333.32C27.5666 331.198 28.4095 329.163 29.9098 327.663C31.4101 326.163 33.4449 325.32 35.5666 325.32H96.5666C98.6884 325.32 100.723 326.163 102.223 327.663C103.724 329.163 104.567 331.198 104.567 333.32C104.567 335.442 103.724 337.476 102.223 338.977C100.723 340.477 98.6884 341.32 96.5666 341.32Z" fill="#3F3D56"/>
<path d="M209.004 278.32C226.677 278.32 241.004 263.993 241.004 246.32C241.004 228.647 226.677 214.32 209.004 214.32C191.331 214.32 177.004 228.647 177.004 246.32C177.004 263.993 191.331 278.32 209.004 278.32Z" fill="#FF731D"/>
</g>
<defs>
<clipPath id="clip0_4_2">
<rect width="667.923" height="568.25" fill="white"/>
</clipPath>
</defs>
</svg>
