<svg width="1728" height="356" viewBox="0 0 1728 356" fill="none" xmlns="http://www.w3.org/2000/svg">
<rect width="1728" height="356" fill="url(#paint0_radial_1_185)" fill-opacity="0.9"/>
<path d="M1375.71 284.222C1374.05 284.375 1372.24 284.605 1370.32 284.941C1362.16 286.368 1361.99 291.126 1362.06 292.217L1362 292.187C1361.18 293.317 1360.67 294.461 1360.36 295.541L1359.98 280.958C1360.23 280.526 1360.45 280.035 1360.63 279.532C1361.24 281.148 1362.24 282.673 1363.11 282.572C1364.23 282.441 1364.72 279.605 1364.51 277.59C1365.94 279.168 1368.34 280.856 1369.25 280.336C1369.97 279.92 1369.54 278.207 1368.75 276.651C1370.4 277.503 1372.22 278.063 1372.79 277.522C1373.56 276.783 1371.71 274.264 1370 272.858C1372.29 273.041 1375.19 272.728 1375.38 271.835C1375.54 271.099 1373.81 270.171 1371.96 269.573C1373.82 269.152 1375.56 268.419 1375.5 267.693C1375.43 266.831 1372.85 266.253 1370.62 266.165C1372.3 265.037 1373.85 263.477 1373.37 262.771C1372.94 262.123 1370.92 262.374 1369.06 262.945C1370.16 261.592 1370.94 260.068 1370.35 259.546C1369.61 258.896 1367 260.018 1365.22 261.258C1365.57 259.326 1365.39 256.887 1364.38 256.667C1363.54 256.482 1362.34 257.901 1361.52 259.446C1361.16 257.824 1360.42 256.285 1359.58 256.285C1358.37 256.285 1357.39 259.409 1357.39 261.444C1357.39 261.559 1357.39 261.667 1357.4 261.771C1357.28 261.65 1357.14 261.524 1356.98 261.392C1355.28 259.974 1351.99 258.4 1351.15 259.144C1350.56 259.666 1351.33 261.19 1352.44 262.543C1350.57 261.972 1348.55 261.721 1348.12 262.369C1347.54 263.241 1350.03 265.417 1352.06 266.472C1351.93 266.459 1351.81 266.448 1351.67 266.44C1349.3 266.302 1345.61 266.927 1345.52 267.961C1345.47 268.687 1347.21 269.42 1349.07 269.841C1347.21 270.439 1345.48 271.367 1345.64 272.103C1345.83 272.996 1348.74 273.309 1351.02 273.126C1349.32 274.532 1347.47 277.052 1348.24 277.79C1348.8 278.331 1350.63 277.771 1352.28 276.919C1351.49 278.475 1351.06 280.188 1351.78 280.604C1352.74 281.153 1355.36 279.24 1356.75 277.594C1356.61 279.608 1357.17 282.375 1358.28 282.484C1358.75 282.529 1359.24 282.103 1359.69 281.446L1358.42 297.121C1358.13 298.946 1360.02 300.138 1360.18 300.889L1360.46 311.504C1360.15 310.748 1359.74 309.974 1359.18 309.206L1359.12 309.236C1359.19 308.145 1359.02 303.387 1350.86 301.961C1348.94 301.624 1347.13 301.394 1345.47 301.241C1343.51 301.06 1342.75 303.361 1344.51 304.104C1347.08 305.181 1349.49 306.537 1350.74 308.143C1353.95 312.249 1358.39 309.876 1359.02 309.507C1359.73 310.514 1360.19 311.529 1360.48 312.494L1360.63 318.131C1360.59 318.264 1360.57 318.339 1360.56 318.345L1360.63 318.362L1360.98 332.004L1364.22 331.981L1363.06 318.037C1363.26 317.285 1363.86 314.722 1363.06 312.061L1361.9 301.105C1361.97 301.393 1361.9 301.097 1361.9 301.105L1360.39 296.8C1360.61 295.468 1361.12 293.97 1362.16 292.488C1362.79 292.856 1367.23 295.23 1370.44 291.124C1371.69 289.518 1374.1 288.162 1376.67 287.085C1378.44 286.342 1377.67 284.041 1375.71 284.222ZM1360.9 316.498L1360.83 314.112C1360.96 315.014 1360.95 315.828 1360.9 316.498Z" fill="#F2F2F2"/>
<path d="M1566.28 333.13C1581.93 333.13 1594.62 322.237 1594.62 308.801C1594.62 295.364 1581.93 284.471 1566.28 284.471C1550.63 284.471 1537.94 295.364 1537.94 308.801C1537.94 322.237 1550.63 333.13 1566.28 333.13Z" fill="#3F3D56"/>
<path d="M1566.28 325.02C1576.71 325.02 1585.17 317.758 1585.17 308.801C1585.17 299.843 1576.71 292.581 1566.28 292.581C1555.84 292.581 1547.38 299.843 1547.38 308.801C1547.38 317.758 1555.84 325.02 1566.28 325.02Z" fill="white"/>
<path d="M1566.28 318.037C1572.22 318.037 1577.04 313.902 1577.04 308.801C1577.04 303.7 1572.22 299.564 1566.28 299.564C1560.34 299.564 1555.52 303.7 1555.52 308.801C1555.52 313.902 1560.34 318.037 1566.28 318.037Z" fill="#3F3D56"/>
<path d="M1402.53 333.13C1418.18 333.13 1430.87 322.237 1430.87 308.801C1430.87 295.364 1418.18 284.471 1402.53 284.471C1386.88 284.471 1374.19 295.364 1374.19 308.801C1374.19 322.237 1386.88 333.13 1402.53 333.13Z" fill="#3F3D56"/>
<path d="M1402.53 325.02C1412.97 325.02 1421.43 317.758 1421.43 308.801C1421.43 299.843 1412.97 292.581 1402.53 292.581C1392.1 292.581 1383.64 299.843 1383.64 308.801C1383.64 317.758 1392.1 325.02 1402.53 325.02Z" fill="white"/>
<path d="M1605.05 297.229C1601.36 289.243 1588.46 264.837 1565.48 256.759C1565.31 256.697 1565.12 256.655 1564.93 256.631L1491.24 247.57C1490.03 247.421 1488.9 248.134 1488.7 249.174L1487.41 256.021C1487.32 256.491 1487.44 256.973 1487.74 257.373C1491.48 262.357 1515.46 296.185 1477.06 296.185C1439.25 296.185 1428.06 272.588 1426.38 268.425C1426.23 268.031 1426.22 267.608 1426.37 267.211L1438.01 235.56C1438.22 234.997 1438.1 234.421 1437.77 233.96L1442.88 225.799L1452.26 230.355L1457.11 230.406L1473.68 237.84L1477.06 233.109L1442.88 218.477C1442.88 218.477 1442.94 215.087 1431.92 212.384L1414.6 205.626L1412.5 207.879L1417.75 211.483L1418.28 214.186L1421.95 215.087L1429.3 227.252L1427.2 230.737L1429.75 231.804L1429.01 231.661C1427.96 231.456 1426.89 231.922 1426.45 232.772L1414.87 255.552C1414.7 255.901 1414.4 256.197 1414.03 256.403L1409.91 258.687C1409.52 258.901 1409.22 259.21 1409.05 259.574L1404.34 269.384C1404.19 269.69 1404.15 270.01 1404.18 270.32C1398.31 271.276 1381.05 275.401 1371.57 291.68L1382.59 299.339C1382.59 299.339 1399.86 289.743 1428.42 299.736C1433.38 306.367 1440.62 311.87 1451.07 312.389C1478.63 313.757 1524.29 315.108 1529.54 309.702C1533.38 305.744 1536.05 303.272 1537.21 302.232C1537.62 301.866 1538.17 301.654 1538.76 301.638L1603.03 299.876C1604.59 299.833 1605.62 298.475 1605.05 297.229Z" fill="#302E42"/>
<path d="M1427.72 226.351C1432.36 226.351 1436.12 223.123 1436.12 219.142C1436.12 215.161 1432.36 211.933 1427.72 211.933C1423.09 211.933 1419.33 215.161 1419.33 219.142C1419.33 223.123 1423.09 226.351 1427.72 226.351Z" fill="#3F3D56"/>
<path d="M1562.2 256.787C1562.1 256.787 1562 256.785 1561.9 256.782L1491.69 254.449C1488.58 254.345 1485.92 252.647 1484.91 250.123L1483.95 247.723C1483.17 245.765 1483.51 243.668 1484.89 241.97C1486.26 240.271 1488.44 239.27 1490.85 239.222L1563.39 237.791C1565.63 237.746 1567.8 238.572 1569.26 240.058C1570.73 241.544 1571.33 243.493 1570.9 245.406L1569.53 251.571C1568.85 254.629 1565.8 256.787 1562.2 256.787Z" fill="#3F3D56"/>
<path d="M1402.53 318.037C1408.47 318.037 1413.29 313.902 1413.29 308.801C1413.29 303.7 1408.47 299.564 1402.53 299.564C1396.59 299.564 1391.77 303.7 1391.77 308.801C1391.77 313.902 1396.59 318.037 1402.53 318.037Z" fill="#3F3D56"/>
<path d="M1590.41 282.505C1588.73 282.505 1587.13 281.733 1586.27 280.408L1580.96 272.145C1580.11 270.836 1580.16 269.298 1581.08 268.03C1582.01 266.761 1583.6 266.045 1585.34 266.127L1594.99 266.552C1596.78 266.631 1598.4 267.601 1599.1 269.025L1601.92 274.745C1602.43 275.793 1602.42 276.941 1601.88 277.98C1601.34 279.018 1600.36 279.795 1599.11 280.165L1591.95 282.282C1591.44 282.433 1590.92 282.505 1590.41 282.505Z" fill="#3F3D56"/>
<path d="M1468.36 337.422C1468.28 337.422 1468.2 337.418 1468.12 337.411L1465.98 337.206C1465.28 337.139 1464.67 336.802 1464.31 336.28C1463.96 335.758 1463.91 335.139 1464.18 334.582L1475.33 311.857C1475.63 311.233 1476.31 310.794 1477.09 310.71C1477.85 310.626 1478.6 310.883 1479.08 311.393C1479.56 311.902 1479.71 312.578 1479.46 313.201L1470.46 336.13C1470.16 336.904 1469.3 337.422 1468.36 337.422Z" fill="#3F3D56"/>
<path d="M1526.23 178.837C1526.23 178.837 1522.15 171.835 1522.97 165.534L1509.4 171.573L1509.92 183.037L1526.23 178.837Z" fill="#A0616A"/>
<path d="M1517.81 174.807C1524.57 174.807 1530.05 170.102 1530.05 164.297C1530.05 158.493 1524.57 153.788 1517.81 153.788C1511.05 153.788 1505.57 158.493 1505.57 164.297C1505.57 170.102 1511.05 174.807 1517.81 174.807Z" fill="#A0616A"/>
<path d="M1530.31 329.339L1522.84 329.338L1519.29 304.602L1530.32 304.602L1530.31 329.339Z" fill="#A0616A"/>
<path d="M1504.72 329.193C1504.49 329.53 1504.36 330.615 1504.36 331.006C1504.36 332.208 1505.5 333.183 1506.9 333.183H1530.04C1530.99 333.183 1531.76 332.518 1531.76 331.698V330.871C1531.76 330.871 1532.91 328.386 1530.55 325.323C1530.55 325.323 1527.62 327.721 1523.25 323.965L1521.96 321.958L1512.62 327.822L1507.44 328.37C1506.31 328.489 1505.3 328.351 1504.72 329.193Z" fill="#2F2E41"/>
<path d="M1508.29 178.837L1526.23 176.736L1540.1 182.337L1540.91 225.744C1540.91 225.744 1506.81 229.244 1501.43 224.694C1496.06 220.143 1500.13 183.737 1500.13 183.737L1508.29 178.837Z" fill="#E6E6E6"/>
<path d="M1514.75 166.975H1511.46C1511.46 166.975 1508.6 163.957 1508.98 165.796C1509.37 167.634 1507.83 169.613 1507.83 169.613L1505.53 168.953C1505.53 168.953 1500.92 152.313 1514.75 151.399C1528.58 150.485 1531.65 159.719 1531.65 159.719C1531.65 159.719 1530.88 164.336 1529.35 163.017C1527.81 161.698 1519.36 161.038 1519.36 161.038L1514.75 166.975Z" fill="#2F2E41"/>
<path d="M1506.04 323.779L1498.85 325.521L1487.6 302.544L1498.21 299.973L1506.04 323.779Z" fill="#A0616A"/>
<path d="M1481.36 329.609C1481.25 329.987 1481.47 331.061 1481.59 331.437C1481.97 332.594 1483.38 333.267 1484.72 332.94L1506.99 327.544C1507.91 327.321 1508.44 326.501 1508.18 325.711L1507.92 324.916C1507.92 324.916 1508.24 322.257 1505 319.859C1505 319.859 1502.94 322.85 1497.54 320.256L1495.66 318.625L1488.53 326.448L1483.72 328.182C1482.67 328.562 1481.66 328.663 1481.36 329.609Z" fill="#2F2E41"/>
<path d="M1538.46 221.543L1540.91 227.894V249.724L1533.57 315.611H1519.23L1517.61 268.577L1518.89 245.347L1491.54 280.866L1503.56 306.235L1490.34 313.81C1490.34 313.81 1470.55 275.102 1473.51 271.352C1476.47 267.602 1502.99 223.329 1502.99 223.329C1502.99 223.329 1538.46 222.243 1538.46 221.543Z" fill="#2F2E41"/>
<path d="M1545.8 196.339L1549.75 201.883C1549.75 201.883 1555.32 220.69 1549.75 220.767C1544.17 220.843 1532.92 211.182 1532.92 211.182L1534.39 206.141L1538.46 207.541L1537.65 196.339L1545.8 196.339Z" fill="#A0616A"/>
<path d="M1533.57 182.249C1533.57 182.249 1546.62 180.275 1547.84 187.607C1549.07 194.939 1549.75 201.883 1549.75 201.883L1535.61 202.888L1533.57 182.249Z" fill="#E6E6E6"/>
<path d="M1536.4 210.566C1537.58 209.144 1535.85 206.349 1532.54 204.324C1529.23 202.299 1525.59 201.809 1524.41 203.231C1523.23 204.653 1524.96 207.448 1528.27 209.473C1531.58 211.498 1535.22 211.987 1536.4 210.566Z" fill="#A0616A"/>
<path d="M1643.9 284.222C1642.24 284.375 1640.43 284.605 1638.51 284.941C1630.34 286.368 1630.17 291.126 1630.25 292.217L1630.19 292.187C1629.37 293.317 1628.86 294.461 1628.55 295.541L1628.17 280.958C1628.41 280.526 1628.63 280.035 1628.82 279.532C1629.43 281.148 1630.43 282.673 1631.29 282.572C1632.41 282.441 1632.9 279.605 1632.69 277.59C1634.12 279.168 1636.53 280.856 1637.43 280.336C1638.16 279.92 1637.73 278.207 1636.94 276.651C1638.58 277.503 1640.41 278.063 1640.97 277.522C1641.75 276.783 1639.9 274.264 1638.19 272.858C1640.47 273.041 1643.38 272.728 1643.57 271.835C1643.73 271.099 1642 270.171 1640.15 269.573C1642.01 269.152 1643.75 268.419 1643.69 267.693C1643.62 266.831 1641.04 266.253 1638.81 266.165C1640.49 265.037 1642.03 263.477 1641.56 262.771C1641.13 262.123 1639.11 262.374 1637.25 262.945C1638.35 261.592 1639.12 260.068 1638.53 259.546C1637.8 258.896 1635.19 260.018 1633.41 261.258C1633.75 259.326 1633.58 256.887 1632.57 256.667C1631.72 256.482 1630.53 257.901 1629.71 259.446C1629.34 257.824 1628.61 256.285 1627.76 256.285C1626.56 256.285 1625.58 259.409 1625.58 261.444C1625.58 261.559 1625.58 261.667 1625.59 261.771C1625.47 261.65 1625.33 261.524 1625.17 261.392C1623.47 259.974 1620.18 258.4 1619.33 259.144C1618.74 259.666 1619.52 261.19 1620.62 262.543C1618.76 261.972 1616.74 261.721 1616.31 262.369C1615.72 263.241 1618.22 265.417 1620.24 266.472C1620.12 266.459 1619.99 266.448 1619.86 266.44C1617.49 266.302 1613.79 266.927 1613.71 267.961C1613.65 268.687 1615.39 269.42 1617.25 269.841C1615.4 270.439 1613.67 271.367 1613.83 272.103C1614.02 272.996 1616.92 273.309 1619.21 273.126C1617.5 274.532 1615.65 277.052 1616.42 277.79C1616.99 278.331 1618.82 277.771 1620.46 276.919C1619.67 278.475 1619.24 280.188 1619.97 280.604C1620.92 281.153 1623.55 279.24 1624.93 277.594C1624.79 279.608 1625.35 282.375 1626.47 282.484C1626.93 282.529 1627.43 282.103 1627.87 281.446L1626.61 297.121C1626.32 298.946 1628.2 300.138 1628.37 300.889L1628.64 311.504C1628.34 310.748 1627.92 309.974 1627.36 309.206L1627.31 309.236C1627.38 308.145 1627.21 303.387 1619.05 301.961C1617.12 301.624 1615.31 301.394 1613.65 301.241C1611.7 301.06 1610.93 303.361 1612.7 304.104C1615.26 305.181 1617.67 306.537 1618.93 308.143C1622.14 312.249 1626.58 309.876 1627.21 309.507C1627.91 310.514 1628.38 311.529 1628.67 312.494L1628.81 318.131C1628.78 318.264 1628.75 318.339 1628.75 318.345L1628.82 318.362L1629.17 332.004L1632.41 331.981L1631.25 318.037C1631.45 317.285 1632.05 314.722 1631.25 312.061L1630.09 301.105C1630.16 301.393 1630.09 301.097 1630.09 301.105L1628.58 296.8C1628.8 295.468 1629.31 293.97 1630.35 292.488C1630.98 292.856 1635.41 295.23 1638.63 291.124C1639.88 289.518 1642.29 288.162 1644.85 287.085C1646.62 286.342 1645.86 284.041 1643.9 284.222ZM1629.08 316.498L1629.02 314.112C1629.14 315.014 1629.14 315.828 1629.08 316.498Z" fill="#F2F2F2"/>
<path d="M1606.13 330.306L1611.77 329.259L1609.75 310.091L1601.43 311.635L1606.13 330.306Z" fill="#A0616A"/>
<path d="M1625.42 326.613C1625.66 326.834 1625.96 327.636 1626.03 327.931C1626.26 328.839 1625.59 329.733 1624.53 329.929L1607.07 333.168C1606.35 333.302 1605.64 332.908 1605.48 332.289L1605.33 331.665C1605.33 331.665 1603.99 329.95 1605.19 327.308C1605.19 327.308 1607.85 328.708 1610.44 325.26L1611.03 323.565L1619.2 326.684L1623.21 326.372C1624.09 326.303 1624.82 326.058 1625.42 326.613Z" fill="#2F2E41"/>
<path d="M1616.21 328.839L1620.92 325.973L1610.28 309.032L1603.34 313.262L1616.21 328.839Z" fill="#A0616A"/>
<path d="M1632.26 318.928C1632.58 319.05 1633.22 319.687 1633.42 319.933C1634.05 320.69 1633.84 321.739 1632.96 322.277L1618.39 331.153C1617.79 331.519 1616.96 331.398 1616.53 330.881L1616.1 330.361C1616.1 330.361 1614.08 329.235 1613.97 326.402C1613.97 326.402 1617.07 326.789 1617.87 322.744L1617.63 320.985L1626.57 321.094L1630.12 319.453C1630.89 319.093 1631.45 318.621 1632.26 318.928Z" fill="#2F2E41"/>
<path d="M1548.45 234.069C1548.45 234.069 1539.67 244.308 1557.22 255.819L1593.04 245.993L1580.25 223.087L1568.92 217.753L1548.45 234.069Z" fill="#2F2E41"/>
<path d="M1593.04 245.993L1606.93 269.212L1615.7 317.534L1604.73 318.161L1593.77 272.35L1574.4 247.562L1587.92 242.228" fill="#2F2E41"/>
<path d="M1557.22 248.525V255.819L1582.07 279.253C1582.07 279.253 1582.07 296.824 1591.58 304.983L1602.54 319.416L1612.05 315.023L1598.16 272.978L1573.3 245.365L1557.22 248.525Z" fill="#2F2E41"/>
<path d="M1574.88 176.218L1570.2 191.542L1552.35 188.528C1552.35 188.528 1564.8 177.503 1563.05 172.479L1574.88 176.218Z" fill="#A0616A"/>
<path d="M1561.24 178.531L1572.2 182.924C1572.2 182.924 1577.85 185.884 1577.95 187.856C1578.05 189.827 1577.32 199.24 1577.32 199.24C1577.32 199.24 1581.71 203.006 1578.78 210.536L1580.25 223.087L1547.35 238.149L1550.27 211.791L1548.81 187.317L1561.24 178.531Z" fill="#5F9DF7"/>
<path d="M1551.4 249.948C1552.68 252.476 1555.24 253.957 1557.12 253.256C1558.99 252.554 1559.47 249.936 1558.18 247.406C1557.69 246.39 1556.91 245.49 1555.93 244.783L1550.33 234.127L1544.56 236.489L1550.69 246.743C1550.63 247.844 1550.87 248.943 1551.4 249.948Z" fill="#A0616A"/>
<path d="M1557.22 188.886C1557.22 188.886 1549.18 184.493 1546.25 189.513C1543.33 194.534 1536.75 220.263 1536.75 220.263L1546.25 244.738L1555.03 241.6L1547.35 215.26L1557.22 188.886Z" fill="#5F9DF7"/>
<path d="M1598.43 245.997C1600.71 247.942 1603.73 248.509 1605.17 247.264C1606.61 246.019 1605.93 243.433 1603.65 241.488C1602.75 240.7 1601.65 240.108 1600.43 239.762L1590.65 231.627L1586.3 235.646L1596.4 243.24C1596.81 244.285 1597.51 245.23 1598.43 245.997Z" fill="#A0616A"/>
<path d="M1577.64 187.389C1577.64 187.389 1563.62 186.897 1563.06 192.489C1562.49 198.081 1572.08 223.033 1572.08 223.033L1591.41 242.78L1598.22 237.089L1579.78 215.029L1577.64 187.389Z" fill="#5F9DF7"/>
<path d="M1536.59 232.692L1524.88 202.178C1515.42 195.016 1505.15 212.259 1477.58 202.485L1486.25 237.002C1507.09 227.328 1525.03 223.54 1536.59 232.692Z" fill="white"/>
<path d="M1486.25 237.902C1486.17 237.902 1486.1 237.888 1486.03 237.86C1485.88 237.801 1485.77 237.685 1485.73 237.546L1477.06 203.029C1477.02 202.866 1477.09 202.696 1477.24 202.589C1477.39 202.481 1477.6 202.454 1477.78 202.518C1493.44 208.071 1503.55 204.765 1510.93 202.351C1516.54 200.515 1520.97 199.067 1525.23 202.289C1525.3 202.342 1525.35 202.41 1525.38 202.486L1537.09 233.001C1537.17 233.196 1537.08 233.41 1536.88 233.521C1536.68 233.631 1536.41 233.612 1536.24 233.473C1526.07 225.426 1510.27 226.815 1486.5 237.848C1486.42 237.884 1486.33 237.902 1486.25 237.902ZM1478.3 203.67L1486.61 236.77C1509.42 226.284 1525.04 224.668 1535.51 231.754L1524.43 202.886C1520.68 200.127 1516.74 201.416 1511.3 203.193C1503.9 205.613 1493.82 208.91 1478.3 203.67Z" fill="#3F3D56"/>
<path d="M1495.73 187.64L1488.33 188.957C1488.33 188.957 1468.52 198.313 1472.26 201.859C1476.01 205.405 1491.91 205.858 1491.91 205.858L1495.2 201.494L1491.22 199.895L1501.31 192.752L1495.73 187.64Z" fill="#A0616A"/>
<path d="M1516.08 185.681C1516.08 185.681 1508.84 176.153 1501.77 180.396C1494.7 184.639 1488.33 188.957 1488.33 188.957L1497.13 198.505L1516.08 185.681Z" fill="#E6E6E6"/>
<path d="M1504.49 205.761C1504.9 204.05 1501.99 202.102 1498.01 201.409C1494.02 200.717 1490.46 201.542 1490.06 203.253C1489.65 204.964 1492.56 206.912 1496.54 207.605C1500.53 208.298 1504.09 207.472 1504.49 205.761Z" fill="#A0616A"/>
<path d="M1641.35 336.1C1643.8 336.1 1645.78 334.398 1645.78 332.298C1645.78 330.199 1643.8 328.497 1641.35 328.497C1638.91 328.497 1636.92 330.199 1636.92 332.298C1636.92 334.398 1638.91 336.1 1641.35 336.1Z" fill="#3F3D56"/>
<path d="M1653.74 281.292V240C1653.74 235.378 1658.25 234.235 1663.63 234.235C1666.27 234.235 1667.56 233.972 1669.41 235.587C1671.26 237.202 1673.32 237.873 1673.28 240.138L1672.5 280.656L1653.74 281.292ZM1664.16 236.939C1659.35 236.939 1654.79 235.874 1654.79 240V280.355L1671.47 279.789L1672.23 240.123C1672.26 238.102 1668.43 238.38 1666.78 236.939C1665.13 235.497 1666.51 236.939 1664.16 236.939Z" fill="#3F3D56"/>
<path d="M1640.56 280.795L1639.89 325.908C1639.88 326.489 1640.04 327.062 1640.36 327.575L1645.32 335.626C1646.05 336.81 1647.51 337.527 1649.07 337.468L1692.67 335.817C1694.9 335.732 1696.63 334.11 1696.53 332.194L1693.79 280.682C1693.69 278.829 1691.92 277.371 1689.76 277.371H1644.6C1642.39 277.371 1640.59 278.897 1640.56 280.795Z" fill="#FF731D"/>
<path d="M1657.75 301.154L1656.7 301.109L1657.09 294.432C1657.3 290.835 1660.74 287.953 1664.94 287.869L1683.5 287.499C1687.25 287.442 1690.36 289.884 1690.56 293.101L1690.96 299.206L1689.91 299.256L1689.52 293.151C1689.34 290.423 1686.69 288.334 1683.53 288.4L1664.96 288.77C1661.32 288.843 1658.32 291.35 1658.13 294.477L1657.75 301.154Z" fill="#3F3D56"/>
<path d="M1657.01 333.492L1655.96 333.4L1658.23 314.449C1658.64 310.945 1662.05 308.183 1666.15 308.026L1684.26 307.329C1686.54 307.24 1688.71 307.934 1690.36 309.281C1692.02 310.627 1692.95 312.448 1692.97 314.407L1693.17 330.907L1692.13 330.916L1691.92 314.416C1691.9 312.704 1691.09 311.112 1689.64 309.935C1688.19 308.758 1686.29 308.151 1684.3 308.229L1666.2 308.926C1662.61 309.064 1659.64 311.477 1659.27 314.541L1657.01 333.492Z" fill="#3F3D56"/>
<path d="M1648.89 332.185L1647.84 332.173L1648.5 288.867C1648.55 285.905 1651.29 283.518 1654.73 283.431L1690.42 282.528L1690.45 283.429L1654.76 284.332C1651.88 284.404 1649.59 286.402 1649.55 288.878L1648.89 332.185Z" fill="#3F3D56"/>
<path d="M1648.98 326.014H1648.25V286.573C1648.25 285.325 1647.07 284.307 1645.61 284.307H1641.54V283.406H1645.61C1647.54 283.406 1649.13 284.681 1649.29 286.294C1649.3 286.384 1649.3 286.478 1649.3 286.573V305.248L1648.98 326.014Z" fill="#3F3D56"/>
<path d="M1582.5 168.025C1582.5 173.8 1577.05 178.481 1570.32 178.481C1563.6 178.481 1558.14 173.8 1558.14 168.025C1558.14 162.251 1563.6 157.57 1570.32 157.57C1577.05 157.57 1582.5 162.251 1582.5 168.025Z" fill="#A0616A"/>
<path d="M1569.35 153.969C1569.7 154.146 1570.17 153.879 1570.29 153.542C1570.4 153.206 1570.27 152.848 1570.14 152.516C1569.92 151.959 1569.7 151.402 1569.48 150.846C1569.01 149.661 1568.52 148.434 1567.51 147.532C1565.99 146.171 1563.57 145.825 1561.39 146.076C1558.59 146.398 1555.83 147.699 1554.53 149.85C1553.22 152.002 1553.78 155.004 1556.13 156.346C1552.78 159.643 1551.61 163.318 1551.79 167.692C1551.98 172.065 1557.53 176.09 1561.15 179.171C1561.96 178.75 1562.69 176.778 1562.25 176.062C1561.81 175.346 1562.44 174.516 1561.89 173.856C1561.34 173.196 1560.88 174.247 1561.44 173.591C1561.79 173.177 1560.42 172.225 1560.94 171.977C1563.46 170.778 1564.3 168.076 1565.89 166.007C1567.8 163.511 1571.08 161.82 1574.54 161.54C1576.45 161.385 1578.47 161.665 1580.03 162.616C1581.6 163.568 1582.61 165.268 1582.25 166.884C1583.19 166.065 1583.66 164.865 1583.48 163.725C1583.3 162.586 1582.49 161.532 1581.33 160.952C1582.03 158.956 1581.43 156.66 1579.8 155.116C1578.17 153.571 1571.55 153.834 1569.17 154.241L1569.35 153.969Z" fill="#2F2E41"/>
<path d="M1568.98 161.6C1565.82 161.893 1563.55 164.239 1561.62 166.406C1560.51 167.655 1559.35 169.034 1559.38 170.604C1559.41 172.192 1560.64 173.553 1561.24 175.058C1562.2 177.517 1561.26 180.442 1558.96 182.127C1561.23 182.497 1563.69 181.035 1564.08 179.079C1564.54 176.801 1562.53 174.603 1562.76 172.302C1562.97 170.274 1564.84 168.713 1566.42 167.197C1568 165.681 1569.49 163.669 1568.76 161.731L1568.98 161.6Z" fill="#2F2E41"/>
<defs>
<radialGradient id="paint0_radial_1_185" cx="0" cy="0" r="1" gradientUnits="userSpaceOnUse" gradientTransform="translate(1156.5 699.699) rotate(120.238) scale(792.305 4913.04)">
<stop stop-color="#5F9DF7"/>
<stop offset="0.424086" stop-color="#4B6293"/>
<stop offset="1" stop-color="#3F3D56"/>
</radialGradient>
</defs>
</svg>
