<svg width="428" height="926" viewBox="0 0 428 926" fill="none"
    xmlns="http://www.w3.org/2000/svg">
    <g clip-path="url(#clip0_548_5652)">
        <rect width="428" height="926" fill="#5F9DF7"/>
        <path d="M1016 16H-264V848H1016V16Z" fill="#5F9DF7"/>
        <mask id="mask0_548_5652" style="mask-type:luminance" maskUnits="userSpaceOnUse" x="-609" y="137" width="2074" height="916">
            <path d="M1465 137H-609V1053H1465V137Z" fill="white"/>
        </mask>
        <g mask="url(#mask0_548_5652)">
            <path d="M1246.73 904.642C1246.73 948.588 1217.4 990.77 1165.25 1021.83C1113.1 1052.9 1042.29 1070.37 968.519 1070.37H-99.2977C-185.813 1070.37 -267.291 1046.19 -319.734 1005.42C-372.177 964.473 -389.954 911.348 -367.436 861.577C-344.918 811.806 -285.068 771.036 -205.071 751.445C-206.849 706.793 -182.257 663.022 -135.444 628.077C-88.6307 593.131 -22.5597 569.304 51.2163 560.48C124.991 551.832 201.136 558.891 266.912 580.424C320.539 526.24 404.981 485.294 505.125 464.997C605.862 445.406 714.303 446.465 814.149 467.644C995.479 505.414 1156.95 611.663 1118.44 764.682C1198.14 795.392 1246.73 847.987 1246.73 904.642Z" fill="#F9F9F9"/>
        </g>
        <rect x="-7" y="787" width="435" height="139" fill="#3F3D56"/>
        <path d="M452.176 864.379L372.971 866.338L365.123 877.472C365.123 877.472 365.762 873.555 365.215 877.884C364.667 882.214 349.337 967.781 352.257 970.668C355.177 973.554 346.781 993.347 346.143 994.585C345.504 995.822 338.934 1055.51 346.143 1060.36L348.88 1081.18H361.564C361.564 1081.18 374.249 1064.58 371.693 1061.59C369.138 1058.6 376.438 1048.6 376.712 1043.24C376.986 1037.88 379.632 1013.55 377.624 1009.74C375.617 1005.92 372.788 991.183 377.99 985.512C383.191 979.842 407.646 910.152 407.646 910.152C407.646 910.152 414.764 991.801 414.764 998.192C414.764 1006.54 419.6 1002.42 419.6 1009.74C419.6 1011.18 435.386 1049.22 445.971 1061.08L467.871 1080.15L478 1071.59V1059.22C478 1059.22 468.602 1036.23 465.316 1032.52C462.031 1028.81 449.896 1017.47 449.896 1012.32C449.896 1007.16 444.237 1005.31 448.07 998.502C451.902 991.698 450.625 988.708 449.256 985.719C447.888 982.729 450.443 861.595 450.443 861.595L452.176 864.379Z" fill="#2F2E41"/>
        <path d="M419.143 684.587C432.347 684.587 443.051 672.494 443.051 657.578C443.051 642.66 432.347 630.567 419.143 630.567C405.94 630.567 395.235 642.66 395.235 657.578C395.235 672.494 405.94 684.587 419.143 684.587Z" fill="#A0616A"/>
        <path d="M298.51 830.358L315.026 814.998L324.06 824.483L306.084 839.946C305.354 844.379 301.522 847.162 297.689 846.338C293.856 845.513 291.301 841.183 292.031 836.854C292.67 833.348 295.316 830.668 298.51 830.358Z" fill="#A0616A"/>
        <path d="M390.49 652.834C393.046 653.763 395.601 654.279 397.243 651.907C398.886 649.536 398.521 646.752 400.985 645.618C403.084 644.794 405.364 644.896 407.372 645.928C407.737 646.03 408.103 646.237 408.467 646.444C408.65 646.237 408.833 646.03 409.107 645.928C410.657 644.691 412.665 644.072 414.581 644.381C413.212 645.103 412.027 646.444 411.296 647.99C412.027 648.402 412.665 648.814 413.395 649.124C419.417 651.907 426.261 651.288 431.919 647.578C429.181 655.825 431.28 658.711 435.386 666.236L435.569 666.648C435.203 664.69 440.496 662.422 440.496 665.309C440.222 668.196 439.675 671.081 438.854 673.865C444.055 664.999 447.157 654.691 445.15 644.691C444.694 642.629 444.511 640.361 443.325 638.712C442.138 637.062 439.949 636.03 438.306 636.959C437.668 627.061 430.093 619.64 421.333 620.36C418.231 620.67 415.219 621.908 412.756 624.072C410.657 625.927 409.015 628.299 407.099 630.463C405.182 632.628 402.993 634.588 400.345 635.103C398.703 635.412 396.787 635.206 395.418 636.444C393.867 637.783 393.867 640.258 393.867 642.629C395.418 642.629 396.879 643.041 398.156 643.969C396.604 643.969 395.054 644.587 393.867 645.721C393.867 645.721 393.776 645.721 393.776 645.825C393.046 649.639 393.229 650.463 390.49 652.834Z" fill="#2F2E41"/>
        <path d="M474.716 741.494C473.621 735.412 470.244 730.05 465.499 726.854C465.316 725.824 465.042 725.205 464.495 725C457.652 722.216 438.672 709.638 438.672 709.638L437.12 695.206L402.718 693.349L393.959 709.638C393.959 709.638 371.146 712.215 371.602 721.699C366.127 729.433 341.49 764.174 326.797 787.164C319.771 798.194 314.935 806.441 315.574 807.782C317.672 812.422 314.752 809.328 311.468 810.153C308.183 810.977 309.825 813.142 309.825 816.339C309.825 819.534 298.693 826.339 298.693 826.339C305.537 829.122 314.114 840.461 314.114 840.461C314.114 840.461 322.418 830.565 323.877 829.534C325.338 828.504 326.25 826.958 330.995 825.101C335.74 823.245 333.732 821.803 334.098 817.885C334.463 813.968 335.557 816.854 342.311 813.245C349.063 809.638 343.587 810.977 345.413 806.029C347.238 801.081 346.69 803.761 352.713 799.638C356.364 797.163 359.922 793.554 364.941 787.267C368.226 783.143 372.241 777.782 377.169 770.875L377.26 770.771C377.624 776.442 377.807 782.009 377.99 787.37C378.445 802.524 377.99 815.307 376.074 818.812C373.336 823.761 368.682 840.256 364.941 854.792C362.386 864.585 367.404 874.894 376.074 877.781C377.716 878.296 379.449 878.606 381.275 878.503C404.635 877.677 438.946 875.616 445.607 871.183C449.256 871.802 452.816 872.627 456.374 873.863C456.374 873.863 458.747 860.565 459.568 858.71C460.389 856.957 460.389 855.101 463.492 850.668C466.686 846.235 464.313 846.235 462.671 842.626C461.119 839.019 463.492 840.875 467.415 833.761C471.339 826.648 467.415 831.08 466.594 825.72C465.773 820.358 466.594 823.04 469.788 815.926C472.434 810.05 473.894 802.318 475.72 787.164C476.084 784.07 476.449 780.566 476.905 776.752C478.183 764.277 476.449 750.875 474.716 741.494Z" fill="#F37527"/>
        <path d="M65.5465 810.669L63.7216 832.626C63.7216 832.626 60.619 849.122 62.8092 847.781C64.9982 846.442 61.0745 852.524 62.0783 857.677C63.082 862.832 53.4098 901.904 57.7904 897.884C62.1696 893.864 55.2346 921.801 50.8553 935.513C49.4861 939.739 48.1168 944.068 46.7489 948.399C46.4748 949.223 46.2007 950.151 45.9279 950.976C44.1018 956.543 42.3683 962.007 40.6349 967.162C40.3608 967.884 40.178 968.604 39.9052 969.327C34.2468 986.234 29.3193 999.429 27.4031 1001.7C26.3993 1002.83 10.339 1015.92 -5.90279 1029.12C-22.8755 1042.93 -40.031 1056.75 -40.031 1056.75L-56 1037.78C-56 1037.78 -55.6345 1037.68 -54.9049 1037.37C-53.5356 1036.96 -51.0725 1036.13 -47.8785 1035C-34.3739 1030.46 -51.5281 1023.55 -39.3014 1018.5C-35.8332 1017.06 -33.5515 1016.03 -33.0046 1015.41C-29.9933 1012.11 -25.8869 1004.07 -23.9707 1007.37C-22.0545 1010.67 -13.2947 985.821 -10.8303 983.347C-9.46235 982.006 -5.08175 975.821 -1.24941 970.357C2.03603 965.616 4.77323 961.491 4.77323 961.491C4.77323 961.491 4.8646 959.223 4.8646 955.718C4.95598 950.461 5.13871 942.317 5.32013 934.172C5.41151 931.08 5.41151 927.986 5.50288 925.1C5.50288 922.833 5.59425 920.667 5.59425 918.709C5.68562 912.73 5.777 908.09 5.777 906.956C5.777 903.245 5.77698 906.131 8.42281 903.864C8.78829 903.554 9.15378 903.142 9.51794 902.73C10.0662 902.215 10.6131 901.596 11.07 900.874C11.2527 900.462 10.0662 901.08 8.51418 900.667C7.69315 900.462 6.87214 900.048 6.23386 899.328C2.94843 896.029 6.50665 885.822 6.50665 885.822C-0.883923 869.018 -0.337028 855.307 3.13115 844.689C5.6856 837.059 9.88345 830.256 15.1764 824.791C17.184 822.626 19.3729 820.668 21.746 818.916L21.9287 817.575L24.4832 802.215C25.8524 801.389 27.2204 800.669 28.5896 800.05C33.0616 798.194 37.8063 797.678 42.5511 798.504C47.2044 799.225 51.6764 800.874 55.8742 803.349C59.4324 805.513 62.6265 807.885 65.5465 810.669Z" fill="#2F2E41"/>
        <path d="M40.7263 967.265C37.6236 986.338 24.5746 1030.87 16.6358 1056.96C12.9862 1068.91 10.5218 1076.96 10.5218 1076.96L6.41533 1075.51L-0.519703 1073.04L-3.07414 1072.11L-6.17685 1070.98C-6.17685 1070.98 -5.81136 1049.64 -5.81136 1029.12C-5.81136 1020.46 -5.81136 1012.01 -5.9941 1005.31C-6.17685 997.987 -6.45096 992.729 -6.9065 991.698C-8.82267 987.47 -5.6286 986.955 -2.25312 985.924C1.12369 984.894 -1.52346 983.244 -2.80002 979.739C-3.71242 977.471 -1.88763 974.378 -0.701115 972.626C-0.33695 972.11 0.0285247 971.698 0.39269 971.183C0.39269 971.183 -0.245579 970.976 -1.24935 970.564C2.03608 965.821 4.77329 961.699 4.77329 961.699C4.77329 961.699 4.86466 959.43 4.86466 955.925C4.95603 950.668 5.13878 942.523 5.32152 934.379C5.41157 931.286 5.41156 928.193 5.50293 925.307C10.7045 929.843 15.8148 934.276 20.3768 938.4C31.4183 948.297 39.7225 956.132 40.9091 958.708C41.5473 959.842 41.3646 962.833 40.7263 967.265Z" fill="#2F2E41"/>
        <path d="M20.0126 773.554L21.746 791.493L20.7422 814.998L66.8244 808.812L71.1122 773.554L65.6379 773.658L20.0126 773.554Z" fill="#FFB6B6"/>
        <path d="M59.2498 715.721L41.9128 700.257L32.7875 699.638L19.2816 709.432L15.9975 728.504L8.15007 749.948L19.6471 807.885C19.6471 807.885 20.7423 812.008 17.9137 812.523C15.0851 813.04 15.4493 819.123 15.4493 819.123C15.4493 819.123 15.9975 824.483 13.2603 824.895C10.5218 825.308 3.22257 825.41 9.60937 834.689C15.9975 843.967 66.5503 808.916 66.5503 808.916L73.8508 765.411C73.8508 765.411 88.085 743.865 72.7557 731.494L59.2498 715.721Z" fill="#F37326"/>
        <path d="M-16.4887 847.162C-19.4087 843.141 -18.769 837.163 -15.2108 833.864C-14.8453 833.555 -14.3898 833.245 -14.0243 832.936L7.78455 750.256L21.3805 757.988L-2.34453 837.266C-0.428358 842.007 -2.25317 847.678 -6.45101 849.843C-9.91786 851.699 -14.0243 850.668 -16.4887 847.162Z" fill="#C78F8F"/>
        <path d="M22.3843 708.608C22.3843 708.608 18.4606 706.236 15.8147 716.443C13.7158 724.586 -3.62243 772.834 -3.89523 784.587C-6.81517 785.307 -9.00543 788.194 -9.0968 791.493L12.3466 794.689C16.0889 791.081 17.0926 786.338 15.632 784.895L20.2854 770.566L39.7225 724.896L25.3042 710.257L22.3843 708.608Z" fill="#F37427"/>
        <path d="M136.813 820.05C137.817 814.998 135.08 809.947 130.609 808.709C130.152 808.607 129.605 808.504 129.148 808.504L79.0511 743.865L68.4664 758.195L120.206 818.092C120.297 823.349 124.129 827.473 128.691 827.473C132.616 827.369 135.992 824.276 136.813 820.05Z" fill="#C78F8F"/>
        <path d="M48.7565 714.071C48.7565 714.071 51.4023 710.05 57.699 717.885C62.7179 724.174 96.8448 759.225 101.5 769.74C104.419 768.916 107.431 770.462 108.799 773.453L90.7322 786.853C85.9861 785.514 83.2489 781.596 83.9785 779.637L74.3063 769.018L39.3571 737.369L46.7489 717.061L48.7565 714.071Z" fill="#FF731D"/>
        <path d="M289.659 849.122C286.648 847.988 285.004 844.275 286.008 840.875C286.1 840.565 286.191 840.256 286.374 839.946L272.595 822.936L277.797 812.008L294.495 837.678C296.776 839.327 297.779 842.421 296.958 845.204C295.955 848.503 292.852 850.359 289.932 849.225C289.751 849.225 289.659 849.122 289.659 849.122Z" fill="#FFB6B6"/>
        <path d="M201.054 719.638C200.597 722.009 200.506 724.483 200.872 726.958C200.963 727.68 201.054 728.298 201.237 729.019C201.875 731.494 202.422 733.865 202.97 735.927C203.335 737.267 203.609 738.402 203.974 739.534C205.89 746.133 207.35 749.844 208.353 750.668C208.902 751.082 209.357 751.39 209.905 751.7C212.46 753.452 214.285 754.689 213.008 757.988C212.825 758.401 212.643 758.917 212.369 759.329C212.004 760.051 211.548 760.669 211.001 761.39C210.727 761.803 210.452 762.112 210.27 762.524C209.997 763.039 209.814 763.453 209.997 763.865C210.18 764.38 210.818 764.587 212.004 764.689C212.187 764.689 212.46 764.689 212.643 764.689C212.734 764.689 212.825 764.689 212.917 764.689C213.1 764.689 213.281 764.689 213.464 764.689C215.016 764.689 216.932 765.514 219.031 766.957C225.235 771.081 232.627 779.328 232.718 779.432L278.526 832.318L279.439 831.596L281.537 829.946L282.267 829.431L283.088 828.812L286.739 826.029L288.564 824.689L276.793 800.153L275.515 797.472L274.42 795.205L251.881 748.401L242.939 732.318L240.931 728.71L232.444 713.452C227.425 704.381 216.749 701.598 208.719 707.37C208.628 707.473 208.445 707.577 208.353 707.68C204.612 710.36 202.058 714.69 201.054 719.638Z" fill="#5F9DF7"/>
        <path d="M187.184 774.689L171.215 827.266L170.667 831.494C166.652 835.823 171.671 837.266 169.846 838.4C168.021 839.534 166.652 842.73 169.208 843.348C171.762 843.967 180.066 1048.91 190.925 1056.85C201.784 1064.79 208.445 1070.56 206.437 1058.91C205.616 1054.17 206.803 1029.02 208.445 1000.67C208.628 997.472 211.548 994.069 208.993 990.872C206.437 987.677 209.266 985.719 209.449 983.141C211.73 946.028 214.376 909.431 214.376 909.431C214.376 909.431 231.349 975.306 235.729 970.152C240.109 964.997 238.375 977.574 239.744 981.388C240.84 984.482 236.094 990.667 243.12 990.771C250.146 990.872 266.755 1054.89 268.397 1054.79C271.682 1054.69 281.081 1055.1 286.648 1053.76C289.385 1053.14 277.248 1004.69 267.028 962.832C266.207 959.534 261.827 959.43 264.656 952.936C267.485 946.44 253.34 904.791 254.618 902.935C257.812 897.782 259.089 895.616 255.896 895.307C252.702 894.998 251.79 896.956 251.607 892.008C251.424 887.06 250.877 874.792 250.877 874.792C250.877 874.792 248.596 826.442 232.444 799.638L231.076 783.761L187.184 774.689Z" fill="#2F2E41"/>
        <path d="M227.242 674.38L205.982 677.782L204.704 695.102L194.211 713.659C194.211 713.659 170.941 732.216 187.184 761.39C180.979 786.544 174.865 810.772 169.025 826.854C164.462 858.811 205.342 861.905 252.063 850.564C252.063 850.564 251.424 836.854 247.135 830.358C242.847 823.864 245.219 822.318 245.219 822.318L242.299 810.05C243.942 792.318 238.284 790.669 235.638 782.524L243.668 697.473L227.242 674.38Z" fill="#5F9DF7"/>
        <path d="M125.316 823.04C125.771 819.534 128.691 816.957 131.794 817.473C132.068 817.473 132.434 817.575 132.706 817.678L145.026 799.224L155.52 802.937L136.266 826.235C135.262 829.019 132.798 830.668 130.152 830.359C127.049 829.946 124.95 826.75 125.316 823.245C125.316 823.142 125.316 823.04 125.316 823.04Z" fill="#FFB6B6"/>
        <path d="M234.543 707.989C234.269 707.577 233.905 707.165 233.539 706.752C228.612 700.979 221.038 699.227 214.559 702.422C214.285 702.525 213.921 702.732 213.646 702.937C202.696 709.02 196.856 713.041 196.127 714.897C195.853 715.515 195.67 716.134 195.487 716.751C195.304 717.37 195.123 717.885 194.94 718.402C194.119 720.567 193.115 722.01 190.651 721.391C189.83 721.186 189.009 720.772 188.279 720.36C187.914 720.154 187.64 719.948 187.366 719.742C186.272 719.123 185.541 718.608 184.994 719.02C184.537 719.433 184.446 720.464 184.903 723.04C185.085 724.071 184.994 725.103 184.811 726.134C184.173 729.123 183.26 732.01 181.983 734.793C180.066 739.021 177.968 743.143 175.595 747.164L153.877 782.112L152.418 784.484L150.774 787.06L137.999 807.679L138.729 808.504L141.923 812.215L142.653 813.04L143.292 813.761L144.934 815.72L146.486 817.473L181.07 785.618L184.903 782.009L191.838 775.618L205.982 762.628L232.809 734.586C236.185 731.082 238.193 726.031 238.284 720.772C238.284 720.567 238.284 720.464 238.284 720.257C238.467 715.824 237.097 711.495 234.543 707.989Z" fill="#5F9DF7"/>
        <path d="M214.468 673.761C227.571 673.761 238.193 661.762 238.193 646.959C238.193 632.155 227.571 620.155 214.468 620.155C201.364 620.155 190.743 632.155 190.743 646.959C190.743 661.762 201.364 673.761 214.468 673.761Z" fill="#FFB6B6"/>
        <path d="M245.859 684.072C249.051 689.227 251.15 695.102 252.063 701.288C249.508 703.144 246.497 704.071 243.486 704.071C243.394 703.659 243.303 703.144 243.12 702.732C242.208 699.226 240.931 695.928 239.196 692.834C239.47 696.133 239.015 699.535 238.011 702.628C236.368 701.803 234.634 701.288 232.901 701.184C231.44 701.184 230.072 701.598 228.794 702.318C227.334 696.751 225.966 691.598 224.962 687.886C224.962 697.165 212.917 705.205 199.868 704.071C199.411 703.763 204.157 688.504 203.7 688.196C202.696 687.37 201.601 686.546 200.597 685.721C204.887 678.196 209.54 670.258 208.719 669.02C208.81 670.463 204.066 677.681 198.955 684.38C196.218 682.01 212.369 643.66 204.43 640.567C204.338 641.907 202.514 641.907 200.415 641.597C199.868 639.329 199.047 637.268 197.952 635.31C198.134 637.268 197.86 639.329 197.312 641.185C195.214 641.185 193.116 641.392 191.017 641.907C190.56 641.082 190.013 640.258 189.465 639.433C189.556 640.36 189.465 641.289 189.373 642.216C187.276 642.731 185.541 643.35 185.268 643.865C183.625 643.143 186.453 640.051 185.358 638.505C182.712 634.484 186.636 628.609 189.1 624.484C194.211 616.031 205.251 613.042 213.19 618.195C213.555 616.856 215.38 615.927 217.662 615.309C218.665 615.103 219.669 615 220.673 615C230.711 615.207 244.672 624.588 245.219 635.927C245.219 637.061 245.31 638.299 245.402 639.639C246.131 652.319 245.219 663.968 252.885 673.246C255.622 676.648 255.714 692.525 254.618 700.669C251.881 697.37 249.874 684.587 245.859 684.072Z" fill="#2F2E41"/>
        <path d="M17.0013 658.093C14.9024 663.969 9.06248 675.515 8.24146 681.804L8.60561 681.392C9.24522 682.731 10.0663 683.968 10.8873 685.102C12.438 683.248 14.2627 681.804 16.3617 680.876C15.2665 683.453 14.5369 686.34 14.4455 689.227C16.6358 697.062 26.9476 693.556 32.9703 692.731C38.9929 700.464 46.9317 702.525 57.4249 698.092C60.3449 698.401 63.6303 698.608 65.6379 696.648C67.6454 694.69 66.4589 691.081 67.5541 688.298C75.4015 668.814 68.1923 661.804 61.9883 652.938C60.619 650.979 60.619 648.093 58.9769 646.237C56.6953 643.66 53.2271 642.835 49.943 642.216C51.6764 642.32 53.3185 641.392 54.2309 639.845C55.0519 638.195 55.0519 636.237 54.1395 634.588C52.9543 632.423 50.5813 631.186 48.2996 630.877C46.0193 630.67 43.7376 630.877 41.456 631.494C39.9967 631.701 38.6274 632.216 37.3495 632.938C36.0729 633.661 35.4333 635.207 35.6161 636.753C35.9816 638.195 36.9854 639.329 38.1706 639.845C39.0843 640.258 40.088 640.567 41.0918 640.774C36.4371 640.051 31.7837 640.979 27.6773 643.454C22.5671 646.856 19.1002 652.216 17.0013 658.093Z" fill="#2F2E41"/>
        <path d="M45.1055 690.979C55.3365 690.979 63.6302 681.609 63.6302 670.051C63.6302 658.493 55.3365 649.124 45.1055 649.124C34.8757 649.124 26.582 658.493 26.582 670.051C26.582 681.609 34.8757 690.979 45.1055 690.979Z" fill="#C78F8F"/>
        <path d="M27.2203 658.814C28.3155 662.526 31.3268 663.66 34.1553 664.381C35.0691 664.587 35.9815 664.794 36.8939 664.999C37.258 664.484 37.6235 664.072 37.989 663.66C39.5397 661.804 41.3645 660.361 43.4634 659.432C42.551 661.495 42.0041 663.762 41.73 666.03C43.4634 666.34 45.1968 666.545 46.9316 666.752C49.9429 667.474 52.9542 665.411 53.7753 662.011C55.3259 664.896 57.2421 667.68 59.7979 668.814C62.8092 670.051 66.1847 668.917 68.0095 666.03C69.4701 663.762 70.4739 661.082 71.0208 658.402C71.7517 655.206 72.1159 651.392 70.748 649.329C69.6528 647.68 67.6453 647.68 65.8205 647.783C61.8054 648.093 57.8817 648.917 54.048 650.155L53.6839 650.979C54.3222 646.444 52.9542 642.113 50.2157 640.67C48.3909 639.64 46.292 639.845 44.1931 640.052C41.4559 640.155 38.81 640.774 36.2542 641.804C33.3343 643.042 30.8712 645.31 29.1378 648.299C27.2203 651.289 26.3079 655.618 27.2203 658.814Z" fill="#2F2E41"/>
        <path d="M53.6839 639.226C53.5012 639.124 53.958 639.226 53.7753 639.226C53.8666 639.226 53.958 639.226 54.0481 639.226C54.0481 639.226 54.2308 639.124 54.1394 639.226C54.4135 639.124 54.6877 638.917 54.8704 638.711C55.326 638.092 55.6914 637.371 55.8742 636.649C56.147 635.722 56.6038 634.793 57.2421 634.073C57.8817 633.35 58.8855 633.35 59.5238 634.073C59.6152 634.174 59.7065 634.381 59.7979 634.484C60.0707 635.412 59.9807 636.443 59.6152 637.371C59.341 638.299 58.9769 639.124 58.4287 639.948C57.6076 641.186 56.4211 642.216 55.0518 642.732C53.5011 643.35 51.8591 643.454 50.3071 642.835C49.7602 642.525 49.3947 641.804 49.6688 641.082C49.7602 640.774 49.9429 640.567 50.2157 640.36L52.8629 639.124C53.4098 638.814 54.1394 639.124 54.4135 639.741C54.6877 640.36 54.4136 641.186 53.8666 641.494L51.2195 642.732L51.1281 640.36C51.4936 640.463 51.7677 640.567 52.1319 640.567C52.4974 640.567 52.8629 640.567 53.227 640.463C53.5925 640.463 53.8666 640.36 54.2308 640.155C54.4135 640.051 54.6877 639.948 54.8704 639.845C54.9618 639.845 55.0518 639.741 55.0518 639.741C55.0518 639.741 55.3259 639.536 55.2346 639.64C55.6001 639.433 55.8742 639.124 56.147 638.814C56.2383 638.711 56.3297 638.609 56.4211 638.505C56.6038 638.299 56.6952 638.092 56.8779 637.887C57.1507 637.371 57.3335 636.856 57.5162 636.341C57.6076 636.134 57.6076 635.927 57.699 635.619C57.699 635.515 57.699 635.412 57.7903 635.207C57.8817 634.896 57.7903 635.412 57.8817 635.515L58.3373 635.927C58.52 636.031 58.7027 635.927 58.8855 635.825C58.8855 635.722 58.9768 635.722 58.8855 635.825C58.7941 635.927 58.7028 636.134 58.6114 636.237C58.4287 636.649 58.2459 636.958 58.1545 637.371C57.8817 638.195 57.5162 638.917 57.0594 639.64C56.147 641.186 54.5963 641.804 53.0456 641.392C52.4974 641.082 52.1319 640.36 52.406 639.741C52.406 639.329 53.0456 639.021 53.6839 639.226Z" fill="#2F2E41"/>
    </g>
    <defs>
        <clipPath id="clip0_548_5652">
            <rect width="428" height="926" fill="white"/>
        </clipPath>
    </defs>
</svg>
