<svg width="428" height="926" viewBox="0 0 428 926" fill="none"
    xmlns="http://www.w3.org/2000/svg">
    <g clip-path="url(#clip0_548_5652)">
        <rect width="428" height="926" fill="#5F9DF7"/>
        <mask id="mask0_548_5652" style="mask-type:luminance" maskUnits="userSpaceOnUse" x="-649" y="11" width="2074" height="916">
            <path d="M1425 11H-649V927H1425V11Z" fill="white"/>
        </mask>
        <g mask="url(#mask0_548_5652)">
            <path d="M1206.73 778.642C1206.73 822.588 1177.4 864.77 1125.25 895.83C1073.1 926.9 1002.29 944.37 928.519 944.37H-139.298C-225.813 944.37 -307.291 920.19 -359.734 879.42C-412.177 838.473 -429.954 785.348 -407.436 735.577C-384.918 685.806 -325.068 645.036 -245.071 625.445C-246.849 580.793 -222.257 537.022 -175.444 502.077C-128.631 467.131 -62.5597 443.304 11.2163 434.48C84.991 425.832 161.136 432.891 226.912 454.424C280.539 400.24 364.981 359.294 465.125 338.997C565.862 319.406 674.303 320.465 774.149 341.644C955.479 379.414 1116.95 485.663 1078.44 638.682C1158.14 669.392 1206.73 721.987 1206.73 778.642Z" fill="#F9F9F9"/>
        </g>
        <rect x="-7" y="787" width="435" height="139" fill="#3F3D56"/>
        <path d="M433.143 721.54L356.904 723.399L349.351 733.959C349.351 733.959 349.965 730.244 349.439 734.35C348.911 738.457 334.156 819.619 336.967 822.357C339.777 825.095 331.696 843.869 331.082 845.043C330.466 846.217 324.142 902.833 331.082 907.429L333.716 927.181H345.925C345.925 927.181 358.135 911.438 355.674 908.603C353.216 905.767 360.241 896.282 360.505 891.196C360.769 886.112 363.316 863.035 361.384 859.417C359.451 855.798 356.729 841.816 361.735 836.437C366.742 831.059 390.281 764.957 390.281 764.957C390.281 764.957 397.132 842.403 397.132 848.465C397.132 856.385 401.787 852.475 401.787 859.417C401.787 860.786 416.982 896.869 427.17 908.113L448.25 926.203L458 918.088V906.354C458 906.354 448.954 884.547 445.792 881.028C442.629 877.507 430.948 866.751 430.948 861.862C430.948 856.972 425.502 855.213 429.191 848.759C432.879 842.305 431.651 839.468 430.333 836.634C429.016 833.797 431.475 718.9 431.475 718.9L433.143 721.54Z" fill="#2F2E41"/>
        <path d="M401.347 551.005C414.057 551.005 424.36 539.535 424.36 525.386C424.36 511.236 414.057 499.766 401.347 499.766C388.639 499.766 378.335 511.236 378.335 525.386C378.335 539.535 388.639 551.005 401.347 551.005Z" fill="#A0616A"/>
        <path d="M419.793 731.319L426.292 709.611L437.974 711.957L430.421 734.644C431.827 738.555 429.982 743.054 426.468 744.52C422.955 746.084 418.914 744.031 417.596 740.119C416.368 736.99 417.334 733.372 419.793 731.319Z" fill="#A0616A"/>
        <path d="M285.233 689.271L301.13 674.702L309.826 683.698L292.522 698.365C291.82 702.57 288.131 705.21 284.442 704.429C280.752 703.646 278.294 699.539 278.996 695.432C279.612 692.107 282.158 689.565 285.233 689.271Z" fill="#A0616A"/>
        <path d="M373.768 520.887C376.228 521.768 378.687 522.257 380.267 520.007C381.849 517.758 381.497 515.118 383.87 514.042C385.89 513.261 388.085 513.357 390.017 514.336C390.369 514.433 390.721 514.629 391.071 514.825C391.247 514.629 391.423 514.433 391.687 514.336C393.179 513.163 395.112 512.576 396.956 512.868C395.638 513.553 394.497 514.825 393.794 516.291C394.497 516.682 395.112 517.073 395.814 517.367C401.611 520.007 408.199 519.42 413.645 515.901C411.009 523.723 413.029 526.461 416.982 533.599L417.158 533.99C416.806 532.133 421.901 529.981 421.901 532.719C421.637 535.458 421.111 538.194 420.32 540.835C425.326 532.425 428.312 522.647 426.38 513.162C425.942 511.207 425.766 509.056 424.624 507.491C423.481 505.927 421.375 504.948 419.793 505.829C419.178 496.44 411.887 489.401 403.456 490.084C400.469 490.379 397.571 491.552 395.2 493.606C393.179 495.365 391.599 497.614 389.755 499.668C387.909 501.721 385.802 503.579 383.254 504.068C381.673 504.361 379.829 504.166 378.511 505.34C377.018 506.61 377.018 508.958 377.018 511.207C378.511 511.207 379.917 511.598 381.147 512.478C379.653 512.478 378.16 513.064 377.018 514.14C377.018 514.14 376.93 514.14 376.93 514.238C376.228 517.856 376.404 518.638 373.768 520.887Z" fill="#2F2E41"/>
        <path d="M454.839 604.982C453.785 599.213 450.534 594.127 445.967 591.096C445.791 590.118 445.528 589.532 445.001 589.337C438.414 586.697 420.144 574.766 420.144 574.766L418.651 561.077L385.538 559.316L377.106 574.766C377.106 574.766 355.148 577.21 355.586 586.206C350.317 593.542 326.602 626.494 312.46 648.3C305.697 658.763 301.042 666.585 301.658 667.857C303.677 672.258 300.866 669.324 297.705 670.107C294.543 670.888 296.123 672.941 296.123 675.974C296.123 679.005 285.409 685.459 285.409 685.459C291.996 688.099 300.252 698.854 300.252 698.854C300.252 698.854 308.245 689.467 309.65 688.49C311.056 687.512 311.934 686.046 316.501 684.285C321.068 682.525 319.136 681.156 319.487 677.44C319.839 673.724 320.892 676.463 327.393 673.04C333.892 669.618 328.621 670.888 330.379 666.195C332.136 661.501 331.608 664.043 337.405 660.133C340.919 657.785 344.344 654.362 349.175 648.398C352.337 644.486 356.202 639.402 360.945 632.85L361.033 632.752C361.384 638.13 361.559 643.411 361.735 648.496C362.174 662.87 361.735 674.995 359.891 678.32C357.256 683.013 352.776 698.66 349.175 712.447C346.716 721.736 351.546 731.514 359.891 734.252C361.471 734.741 363.14 735.035 364.898 734.937C387.382 734.154 420.408 732.199 426.82 727.994C430.333 728.581 433.759 729.364 437.184 730.537C437.184 730.537 439.468 717.923 440.258 716.163C441.049 714.501 441.049 712.74 444.035 708.535C447.109 704.331 444.825 704.331 443.245 700.908C441.751 697.486 444.035 699.247 447.812 692.498C451.589 685.752 447.812 689.956 447.022 684.872C446.231 679.786 447.022 682.33 450.096 675.582C452.643 670.009 454.047 662.675 455.805 648.3C456.156 645.366 456.507 642.042 456.946 638.425C458.176 626.592 456.507 613.88 454.839 604.982Z" fill="#F37527"/>
        <path d="M60.9942 670.595L59.2377 691.422C59.2377 691.422 56.2512 707.069 58.3595 705.797C60.4664 704.527 56.6897 710.296 57.6559 715.184C58.622 720.074 49.312 757.134 53.5286 753.32C57.7438 749.508 51.0685 776.006 46.8533 789.012C45.5353 793.021 44.2173 797.127 42.9006 801.235C42.6368 802.017 42.3729 802.897 42.1104 803.68C40.3526 808.96 38.6841 814.142 37.0156 819.032C36.7518 819.717 36.5759 820.4 36.3133 821.085C30.8668 837.122 26.1238 849.638 24.2794 851.79C23.3132 852.865 7.85438 865.283 -7.77909 877.801C-24.1162 890.903 -40.6291 904.006 -40.6291 904.006L-56 886.014C-56 886.014 -55.6482 885.916 -54.9459 885.623C-53.6279 885.232 -51.2571 884.449 -48.1826 883.374C-35.1839 879.071 -51.6956 872.52 -39.9268 867.729C-36.5885 866.359 -34.3923 865.381 -33.8659 864.794C-30.9673 861.665 -27.0147 854.039 -25.1703 857.168C-23.3259 860.297 -14.8941 836.73 -12.522 834.384C-11.2053 833.112 -6.9888 827.245 -3.29999 822.063C-0.137607 817.565 2.49708 813.653 2.49708 813.653C2.49708 813.653 2.58503 811.502 2.58503 808.177C2.67298 803.191 2.84887 795.466 3.0235 787.74C3.11145 784.808 3.11145 781.873 3.1994 779.135C3.1994 776.985 3.28735 774.93 3.28735 773.073C3.3753 767.402 3.46325 763.001 3.46325 761.926C3.46325 758.406 3.46323 761.143 6.00997 758.993C6.36177 758.699 6.71356 758.308 7.06409 757.917C7.59179 757.428 8.11825 756.841 8.558 756.156C8.7339 755.766 7.5918 756.352 6.09792 755.96C5.30764 755.766 4.51738 755.373 3.903 754.69C0.740622 751.561 4.16557 741.88 4.16557 741.88C-2.9482 725.941 -2.42178 712.936 0.9165 702.864C3.37528 695.627 7.4159 689.174 12.5106 683.991C14.443 681.937 16.55 680.08 18.8341 678.418L19.01 677.146L21.4688 662.577C22.7868 661.794 24.1035 661.11 25.4215 660.523C29.7259 658.763 34.293 658.274 38.86 659.057C43.3391 659.74 47.6436 661.305 51.6842 663.652C55.1091 665.706 58.1836 667.955 60.9942 670.595Z" fill="#2F2E41"/>
        <path d="M37.1036 819.13C34.1171 837.221 21.5568 879.464 13.9153 904.203C10.4024 915.545 8.03032 923.173 8.03032 923.173L4.07764 921.803L-2.59765 919.457L-5.05641 918.577L-8.04292 917.502C-8.04292 917.502 -7.69112 897.26 -7.69112 877.801C-7.69112 869.586 -7.69112 861.568 -7.86702 855.212C-8.04292 848.27 -8.30676 843.283 -8.74524 842.305C-10.5896 838.295 -7.5152 837.806 -4.26614 836.829C-1.01581 835.851 -3.56381 834.286 -4.79256 830.961C-5.67079 828.81 -3.91435 825.877 -2.77227 824.215C-2.42174 823.726 -2.06995 823.335 -1.71943 822.846C-1.71943 822.846 -2.33379 822.65 -3.29997 822.259C-0.137588 817.76 2.4971 813.85 2.4971 813.85C2.4971 813.85 2.58505 811.699 2.58505 808.373C2.673 803.387 2.8489 795.661 3.0248 787.937C3.11148 785.003 3.11147 782.07 3.19942 779.332C8.20621 783.634 13.125 787.839 17.5162 791.751C28.1441 801.138 36.1374 808.57 37.2795 811.014C37.8939 812.089 37.718 814.926 37.1036 819.13Z" fill="#2F2E41"/>
        <path d="M17.1656 635.392L18.8341 652.407L17.868 674.702L62.2242 668.835L66.3515 635.392L61.0821 635.49L17.1656 635.392Z" fill="#FFB6B6"/>
        <path d="M54.9333 580.535L38.2457 565.868L29.4622 565.281L16.4621 574.57L13.301 592.66L5.74746 613L16.8139 667.955C16.8139 667.955 17.868 671.865 15.1454 672.354C12.4228 672.844 12.7733 678.614 12.7733 678.614C12.7733 678.614 13.301 683.698 10.6663 684.089C8.03035 684.481 1.00451 684.577 7.1521 693.379C13.301 702.179 61.9604 668.932 61.9604 668.932L68.9875 627.667C68.9875 627.667 82.6886 607.231 67.9334 595.496L54.9333 580.535Z" fill="#F37326"/>
        <path d="M-17.9685 705.21C-20.7791 701.396 -20.1634 695.725 -16.7385 692.596C-16.3867 692.304 -15.9482 692.009 -15.5964 691.717L5.39563 613.293L18.4824 620.627L-4.35408 695.823C-2.50967 700.321 -4.26614 705.699 -8.30676 707.752C-11.6438 709.513 -15.5964 708.535 -17.9685 705.21Z" fill="#C78F8F"/>
        <path d="M19.4485 573.789C19.4485 573.789 15.6717 571.539 13.125 581.221C11.1047 588.945 -5.58418 634.709 -5.84675 645.857C-8.65734 646.54 -10.7656 649.278 -10.8535 652.407L9.78673 655.438C13.3889 652.016 14.355 647.518 12.9491 646.149L17.4282 632.558L36.1374 589.239L22.2591 575.353L19.4485 573.789Z" fill="#F37427"/>
        <path d="M129.592 679.493C130.558 674.702 127.923 669.91 123.62 668.737C123.18 668.64 122.654 668.542 122.214 668.542L73.993 607.231L63.8048 620.823L113.606 677.636C113.694 682.622 117.383 686.534 121.774 686.534C125.552 686.436 128.801 683.502 129.592 679.493Z" fill="#C78F8F"/>
        <path d="M44.833 578.971C44.833 578.971 47.3798 575.157 53.4407 582.588C58.2716 588.554 91.1203 621.8 95.6007 631.774C98.4113 630.993 101.31 632.459 102.627 635.295L85.2366 648.006C80.6683 646.736 78.0336 643.02 78.7359 641.161L69.4259 631.089L35.7856 601.07L42.9007 581.807L44.833 578.971Z" fill="#FF731D"/>
        <path d="M276.713 707.068C273.815 705.993 272.233 702.472 273.199 699.246C273.287 698.952 273.375 698.659 273.551 698.365L260.288 682.231L265.295 671.865L281.368 696.214C283.563 697.778 284.529 700.712 283.739 703.353C282.773 706.482 279.786 708.242 276.976 707.167C276.801 707.167 276.713 707.068 276.713 707.068Z" fill="#FFB6B6"/>
        <path d="M191.427 584.251C190.987 586.501 190.899 588.847 191.251 591.194C191.339 591.879 191.427 592.466 191.603 593.149C192.217 595.497 192.743 597.746 193.271 599.701C193.622 600.973 193.886 602.049 194.237 603.123C196.082 609.383 197.486 612.902 198.453 613.684C198.98 614.076 199.419 614.369 199.947 614.663C202.405 616.324 204.162 617.498 202.933 620.627C202.757 621.019 202.581 621.508 202.317 621.899C201.967 622.584 201.527 623.17 201.001 623.854C200.737 624.246 200.473 624.539 200.297 624.93C200.034 625.418 199.859 625.811 200.034 626.201C200.21 626.69 200.825 626.886 201.967 626.983C202.143 626.983 202.405 626.983 202.581 626.983C202.669 626.983 202.757 626.983 202.845 626.983C203.021 626.983 203.196 626.983 203.371 626.983C204.865 626.983 206.71 627.766 208.73 629.134C214.702 633.046 221.817 640.869 221.905 640.967L265.997 691.13L266.875 690.445L268.896 688.881L269.598 688.392L270.388 687.805L273.902 685.165L275.659 683.894L264.329 660.622L263.099 658.078L262.044 655.928L240.35 611.534L231.742 596.278L229.81 592.857L221.641 578.384C216.81 569.78 206.534 567.14 198.804 572.615C198.716 572.713 198.541 572.811 198.453 572.909C194.852 575.451 192.393 579.558 191.427 584.251Z" fill="#5F9DF7"/>
        <path d="M178.076 636.468L162.705 686.338L162.178 690.348C158.313 694.455 163.144 695.823 161.387 696.899C159.631 697.975 158.313 701.006 160.773 701.593C163.232 702.179 171.225 896.575 181.677 904.105C192.129 911.634 198.541 917.109 196.608 906.06C195.818 901.562 196.96 877.703 198.541 850.812C198.716 847.781 201.527 844.554 199.068 841.522C196.608 838.491 199.331 836.634 199.507 834.188C201.703 798.986 204.25 764.273 204.25 764.273C204.25 764.273 220.587 826.756 224.803 821.868C229.018 816.979 227.35 828.908 228.668 832.526C229.722 835.46 225.154 841.327 231.917 841.425C238.68 841.522 254.667 902.247 256.247 902.149C259.41 902.051 268.456 902.442 273.814 901.172C276.449 900.585 264.767 854.626 254.929 814.925C254.139 811.796 249.924 811.698 252.646 805.538C255.369 799.377 241.755 759.873 242.985 758.112C246.059 753.224 247.288 751.169 244.215 750.876C241.14 750.584 240.262 752.441 240.086 747.747C239.91 743.054 239.384 731.417 239.384 731.417C239.384 731.417 237.188 685.557 221.641 660.133L220.324 645.073L178.076 636.468Z" fill="#2F2E41"/>
        <path d="M216.634 541.323L196.17 544.55L194.94 560.978L184.84 578.579C184.84 578.579 162.442 596.181 178.076 623.853C172.103 647.713 166.218 670.693 160.597 685.947C156.205 716.259 195.554 719.193 240.525 708.437C240.525 708.437 239.91 695.432 235.782 689.271C231.655 683.111 233.937 681.644 233.937 681.644L231.127 670.008C232.709 653.189 227.262 651.625 224.715 643.899L232.445 563.227L216.634 541.323Z" fill="#5F9DF7"/>
        <path d="M118.525 682.33C118.964 679.004 121.774 676.56 124.761 677.049C125.024 677.049 125.376 677.146 125.639 677.244L137.497 659.74L147.598 663.261L129.065 685.36C128.099 688.001 125.727 689.565 123.18 689.272C120.194 688.88 118.173 685.849 118.525 682.524C118.525 682.426 118.525 682.33 118.525 682.33Z" fill="#FFB6B6"/>
        <path d="M223.661 573.201C223.397 572.811 223.047 572.42 222.695 572.028C217.952 566.553 210.662 564.89 204.426 567.921C204.162 568.019 203.811 568.215 203.547 568.41C193.007 574.179 187.386 577.993 186.684 579.753C186.42 580.34 186.244 580.927 186.068 581.513C185.892 582.099 185.718 582.588 185.542 583.078C184.751 585.132 183.785 586.5 181.413 585.913C180.623 585.719 179.833 585.326 179.13 584.936C178.779 584.74 178.515 584.545 178.251 584.349C177.198 583.762 176.494 583.273 175.968 583.664C175.528 584.056 175.44 585.034 175.88 587.478C176.056 588.455 175.968 589.435 175.792 590.412C175.178 593.247 174.299 595.985 173.069 598.625C171.225 602.635 169.205 606.546 166.921 610.36L146.016 643.508L144.612 645.758L143.03 648.202L130.734 667.759L131.436 668.542L134.51 672.062L135.213 672.844L135.828 673.528L137.409 675.387L138.903 677.049L172.191 646.833L175.88 643.41L182.555 637.348L196.17 625.027L221.993 598.429C225.242 595.106 227.174 590.314 227.262 585.327C227.262 585.132 227.262 585.034 227.262 584.838C227.438 580.633 226.12 576.526 223.661 573.201Z" fill="#5F9DF7"/>
        <path d="M204.338 540.736C216.95 540.736 227.174 529.354 227.174 515.314C227.174 501.272 216.95 489.89 204.338 489.89C191.725 489.89 181.501 501.272 181.501 515.314C181.501 529.354 191.725 540.736 204.338 540.736Z" fill="#FFB6B6"/>
        <path d="M234.553 550.516C237.626 555.405 239.646 560.978 240.525 566.845C238.066 568.606 235.167 569.486 232.269 569.486C232.181 569.095 232.093 568.606 231.917 568.215C231.039 564.89 229.81 561.761 228.14 558.827C228.404 561.956 227.966 565.183 227 568.117C225.418 567.334 223.749 566.845 222.081 566.747C220.675 566.747 219.358 567.14 218.128 567.823C216.722 562.543 215.405 557.655 214.439 554.133C214.439 562.935 202.845 570.561 190.285 569.486C189.845 569.193 194.413 554.72 193.974 554.428C193.007 553.645 191.953 552.863 190.987 552.08C195.116 544.942 199.595 537.413 198.804 536.239C198.892 537.607 194.325 544.454 189.407 550.808C186.772 548.56 202.317 512.185 194.676 509.25C194.588 510.522 192.832 510.522 190.811 510.228C190.285 508.077 189.495 506.121 188.44 504.264C188.616 506.121 188.352 508.077 187.825 509.837C185.806 509.837 183.785 510.033 181.765 510.522C181.325 509.739 180.799 508.958 180.271 508.175C180.359 509.054 180.271 509.935 180.183 510.815C178.164 511.304 176.494 511.891 176.232 512.379C174.65 511.694 177.373 508.762 176.319 507.295C173.772 503.481 177.549 497.908 179.921 493.996C184.84 485.978 195.466 483.143 203.108 488.031C203.459 486.761 205.216 485.88 207.412 485.293C208.378 485.098 209.344 485 210.311 485C219.972 485.196 233.411 494.094 233.937 504.85C233.937 505.925 234.025 507.099 234.113 508.371C234.816 520.398 233.937 531.447 241.316 540.248C243.951 543.475 244.039 558.534 242.985 566.259C240.35 563.13 238.418 551.004 234.553 550.516Z" fill="#2F2E41"/>
        <path d="M14.2672 525.874C12.2469 531.447 6.62573 542.399 5.83545 548.364L6.18597 547.973C6.80162 549.244 7.59192 550.417 8.3822 551.493C9.87481 549.734 11.6312 548.364 13.6515 547.485C12.5974 549.929 11.8951 552.667 11.8071 555.405C13.9154 562.837 23.841 559.512 29.6381 558.729C35.4352 566.064 43.0766 568.019 53.1769 563.814C55.9874 564.107 59.1499 564.303 61.0822 562.445C63.0146 560.587 61.8725 557.164 62.9266 554.524C70.4801 536.043 63.541 529.394 57.5693 520.985C56.2513 519.126 56.2513 516.389 54.6707 514.629C52.4745 512.185 49.1363 511.402 45.9751 510.815C47.6436 510.913 49.2242 510.033 50.1024 508.565C50.8927 507.001 50.8927 505.144 50.0145 503.579C48.8737 501.526 46.5895 500.352 44.3933 500.059C42.1984 499.863 40.0022 500.059 37.806 500.645C36.4013 500.841 35.0833 501.33 33.8533 502.015C32.6245 502.7 32.0089 504.166 32.1848 505.632C32.5366 507.001 33.5028 508.077 34.6436 508.565C35.5231 508.958 36.4893 509.25 37.4555 509.446C32.9751 508.761 28.496 509.641 24.5433 511.988C19.6245 515.216 16.2875 520.3 14.2672 525.874Z" fill="#2F2E41"/>
        <path d="M41.3187 557.067C51.1666 557.067 59.1496 548.179 59.1496 537.216C59.1496 526.253 51.1666 517.367 41.3187 517.367C31.4721 517.367 23.489 526.253 23.489 537.216C23.489 548.179 31.4721 557.067 41.3187 557.067Z" fill="#C78F8F"/>
        <path d="M24.1035 526.558C25.1576 530.079 28.0561 531.154 30.7787 531.838C31.6582 532.034 32.5365 532.23 33.4147 532.425C33.7652 531.936 34.117 531.545 34.4688 531.155C35.9614 529.394 37.7179 528.026 39.7382 527.145C38.86 529.101 38.3335 531.251 38.0697 533.403C39.7382 533.697 41.4067 533.891 43.0765 534.087C45.975 534.772 48.8736 532.816 49.6638 529.59C51.1564 532.327 53.0008 534.967 55.4609 536.043C58.3594 537.216 61.6085 536.141 63.3649 533.403C64.7709 531.251 65.737 528.709 66.2634 526.167C66.967 523.136 67.3176 519.518 66.0009 517.561C64.9467 515.997 63.0144 515.997 61.2579 516.095C57.3932 516.389 53.6165 517.171 49.9264 518.344L49.5759 519.126C50.1903 514.825 48.8735 510.717 46.2376 509.348C44.4811 508.371 42.4608 508.565 40.4405 508.761C37.8059 508.859 35.2591 509.446 32.799 510.424C29.9885 511.598 27.6176 513.749 25.9491 516.584C24.1035 519.42 23.2252 523.527 24.1035 526.558Z" fill="#2F2E41"/>
        <path d="M49.5759 507.979C49.4 507.882 49.8398 507.979 49.6639 507.979C49.7518 507.979 49.8398 507.979 49.9264 507.979C49.9264 507.979 50.1023 507.882 50.0144 507.979C50.2782 507.882 50.5421 507.686 50.718 507.49C51.1565 506.903 51.5083 506.219 51.6842 505.534C51.9468 504.655 52.3865 503.774 53.0009 503.09C53.6165 502.405 54.5827 502.405 55.1971 503.09C55.285 503.187 55.373 503.383 55.461 503.481C55.7235 504.361 55.6369 505.338 55.285 506.219C55.0212 507.099 54.6707 507.882 54.143 508.663C53.3527 509.837 52.2106 510.815 50.8926 511.304C49.4 511.89 47.8195 511.988 46.3256 511.402C45.7991 511.107 45.4474 510.424 45.7112 509.739C45.7992 509.446 45.975 509.25 46.2376 509.054L48.7857 507.882C49.3121 507.588 50.0144 507.882 50.2783 508.467C50.5421 509.054 50.2783 509.837 49.7518 510.13L47.2038 511.304L47.1159 509.054C47.4677 509.152 47.7315 509.25 48.0821 509.25C48.4339 509.25 48.7857 509.25 49.1362 509.152C49.488 509.152 49.7518 509.054 50.1023 508.86C50.2782 508.761 50.5421 508.663 50.718 508.565C50.806 508.565 50.8926 508.467 50.8926 508.467C50.8926 508.467 51.1565 508.273 51.0685 508.371C51.4203 508.175 51.6842 507.882 51.9467 507.588C52.0347 507.49 52.1226 507.393 52.2106 507.295C52.3865 507.099 52.4744 506.903 52.6503 506.708C52.9129 506.219 53.0888 505.73 53.2647 505.242C53.3527 505.046 53.3527 504.849 53.4406 504.557C53.4406 504.459 53.4406 504.361 53.5286 504.166C53.6165 503.872 53.5286 504.361 53.6165 504.459L54.055 504.849C54.2309 504.948 54.4068 504.849 54.5827 504.753C54.5827 504.655 54.6706 504.655 54.5827 504.753C54.4947 504.849 54.4068 505.046 54.3189 505.144C54.143 505.534 53.9671 505.827 53.8791 506.219C53.6165 507.001 53.2647 507.686 52.825 508.371C51.9467 509.837 50.4542 510.424 48.9616 510.033C48.4339 509.739 48.0821 509.054 48.3459 508.467C48.3459 508.077 48.9616 507.784 49.5759 507.979Z" fill="#2F2E41"/>
    </g>
    <defs>
        <clipPath id="clip0_548_5652">
            <rect width="428" height="926" fill="white"/>
        </clipPath>
    </defs>
</svg>
