<svg width="1280" height="832" viewBox="0 0 1280 832" fill="none"
    xmlns="http://www.w3.org/2000/svg">
    <g clip-path="url(#clip0_547_5587)">
        <mask id="mask0_547_5587" style="mask-type:luminance" maskUnits="userSpaceOnUse" x="0" y="0" width="1280" height="832">
            <path d="M1280 0H0V832H1280V0Z" fill="white"/>
        </mask>
        <g mask="url(#mask0_547_5587)">
            <path d="M1280 0H0V832H1280V0Z" fill="#5F9DF7"/>
            <mask id="mask1_547_5587" style="mask-type:luminance" maskUnits="userSpaceOnUse" x="-345" y="121" width="2074" height="916">
                <path d="M1729 121H-345V1037H1729V121Z" fill="white"/>
            </mask>
            <g mask="url(#mask1_547_5587)">
                <path d="M1512.21 749.034C1512.21 792.98 1482.88 835.162 1430.73 866.225C1378.58 897.288 1307.77 914.761 1234 914.761H166.183C79.668 914.761 -1.81057 890.581 -54.2531 849.811C-106.696 808.865 -124.473 755.74 -101.955 705.969C-79.4374 656.198 -19.5877 615.428 60.4094 595.837C58.6317 551.185 83.2234 507.414 130.037 472.469C176.85 437.523 242.921 413.696 316.697 404.872C390.472 396.224 466.617 403.283 532.393 424.816C586.02 370.632 670.462 329.686 770.606 309.389C871.343 289.798 979.784 290.857 1079.63 312.036C1260.96 349.806 1422.43 456.055 1383.92 609.074C1463.62 639.784 1512.21 692.379 1512.21 749.034Z" fill="#F9F9F9"/>
            </g>
            <path d="M846.478 456.682L848.457 508.989H843.681V514.923H857.122V508.989H853.165L853.438 456.682H846.478Z" fill="#3F3D56"/>
            <path d="M841.293 500.601C843.34 500.601 844.977 502.238 844.977 504.284V519.56C844.977 521.606 843.34 523.243 841.293 523.243C839.246 523.243 837.608 521.606 837.608 519.56V504.284C837.608 502.238 839.246 500.601 841.293 500.601Z" fill="#3F3D56"/>
            <path d="M860.056 500.601C862.103 500.601 863.74 502.238 863.74 504.284V519.56C863.74 521.606 862.103 523.243 860.056 523.243C858.009 523.243 856.371 521.606 856.371 519.56V504.284C856.371 502.238 858.009 500.601 860.056 500.601Z" fill="#3F3D56"/>
            <path d="M890.213 424.083L814.137 420.605L826.009 415.217L892.67 416.172L890.213 424.083Z" fill="#5F9DF7"/>
            <path d="M587 431.721L596.211 428.311L881.344 435.676L893.147 430.289L888.235 463.842L661.712 439.7L587 431.721Z" fill="#5F9DF7"/>
            <path d="M660.347 451.226L661.712 439.7L888.235 463.842L887.007 480.824L660.347 451.226Z" fill="#3F3D56"/>
            <path d="M812.704 485.325C825.667 485.325 836.175 474.15 836.175 460.364C836.175 446.579 825.667 435.404 812.704 435.404C799.742 435.404 789.233 446.579 789.233 460.364C789.233 474.15 799.742 485.325 812.704 485.325Z" fill="#3F3D56"/>
            <path d="M812.704 473.185C822.238 473.185 829.967 465.461 829.967 455.931C829.967 446.402 822.238 438.677 812.704 438.677C803.171 438.677 795.442 446.402 795.442 455.931C795.442 465.461 803.171 473.185 812.704 473.185Z" fill="#5F9DF7"/>
            <path d="M1005.52 456.682L1003.54 508.989H1008.32V514.923H994.878V508.989H998.835L998.562 456.682H1005.52Z" fill="#3F3D56"/>
            <path d="M1010.71 500.601C1012.75 500.601 1014.39 502.238 1014.39 504.284V519.56C1014.39 521.606 1012.75 523.243 1010.71 523.243C1008.66 523.243 1007.02 521.606 1007.02 519.56V504.284C1007.02 502.238 1008.66 500.601 1010.71 500.601Z" fill="#3F3D56"/>
            <path d="M991.944 500.601C993.991 500.601 995.629 502.238 995.629 504.284V519.56C995.629 521.606 993.991 523.243 991.944 523.243C989.897 523.243 988.26 521.606 988.26 519.56V504.284C988.26 502.238 989.897 500.601 991.944 500.601Z" fill="#3F3D56"/>
            <path d="M961.787 424.083L1037.86 420.605L1025.99 415.217L959.33 416.172L961.787 424.083Z" fill="#5F9DF7"/>
            <path d="M934.563 413.444L931.151 337.403L925.693 349.27L926.716 415.899L934.563 413.444Z" fill="#5F9DF7"/>
            <path d="M1265 431.721L1255.86 428.311L970.725 435.676L958.853 430.289L963.765 463.842L1190.29 439.7L1265 431.721Z" fill="#5F9DF7"/>
            <path d="M1191.72 451.226L1190.29 439.7L963.765 463.842L964.993 480.824L1191.72 451.226Z" fill="#3F3D56"/>
            <path d="M1039.36 485.325C1052.33 485.325 1062.83 474.15 1062.83 460.364C1062.83 446.579 1052.33 435.404 1039.36 435.404C1026.4 435.404 1015.89 446.579 1015.89 460.364C1015.89 474.15 1026.4 485.325 1039.36 485.325Z" fill="#3F3D56"/>
            <path d="M1039.36 473.185C1048.9 473.185 1056.63 465.461 1056.63 455.931C1056.63 446.402 1048.9 438.677 1039.36 438.677C1029.83 438.677 1022.1 446.402 1022.1 455.931C1022.1 465.461 1029.83 473.185 1039.36 473.185Z" fill="#5F9DF7"/>
            <path d="M969.087 414.603L967.996 422.855L967.381 467.32C967.313 470.594 966.904 473.867 966.153 477.073C963.97 486.279 958.921 494.668 951.484 500.806C944.729 506.33 935.45 510.49 923.237 509.808C890.623 507.83 887.757 480.142 887.757 480.142L888.985 429.88L889.122 422.992L890.623 410.58C890.623 410.58 894.58 375.526 931.083 376.549C967.586 377.572 969.087 414.603 969.087 414.603Z" fill="#5F9DF7"/>
            <path d="M898.606 403.01L906.043 391.143L915.39 388.211H947.458L955.373 391.143L962.537 403.01L949.437 397.076H912.729L898.606 403.01Z" fill="#E6E6E6"/>
            <path d="M925.761 488.189L927.058 521.742H923.919V525.561H932.584V521.742H930.06L930.264 488.189H925.761Z" fill="#3F3D56"/>
            <path d="M922.418 516.355C923.714 516.355 924.806 517.446 924.806 518.742V528.562C924.806 529.858 923.714 530.949 922.418 530.949C921.122 530.949 920.03 529.858 920.03 528.562V518.742C920.098 517.446 921.122 516.355 922.418 516.355Z" fill="#3F3D56"/>
            <path d="M934.495 516.355C935.791 516.355 936.883 517.446 936.883 518.742V528.562C936.883 529.858 935.791 530.949 934.495 530.949C933.198 530.949 932.107 529.858 932.107 528.562V518.742C932.107 517.446 933.198 516.355 934.495 516.355Z" fill="#3F3D56"/>
        </g>
        <rect y="693" width="1280" height="139" fill="#3F3D56"/>
        <path d="M710.176 780.379L630.971 782.338L623.123 793.472C623.123 793.472 623.762 789.555 623.215 793.884C622.666 798.214 607.337 883.781 610.257 886.668C613.177 889.554 604.781 909.347 604.143 910.585C603.503 911.822 596.934 971.511 604.143 976.357L606.88 997.181H619.564C619.564 997.181 632.249 980.584 629.693 977.595C627.138 974.605 634.438 964.605 634.712 959.243C634.986 953.883 637.632 929.554 635.624 925.74C633.617 921.924 630.788 907.183 635.99 901.512C641.191 895.842 665.646 826.152 665.646 826.152C665.646 826.152 672.764 907.801 672.764 914.192C672.764 922.543 677.6 918.42 677.6 925.74C677.6 927.182 693.386 965.224 703.971 977.078L725.871 996.15L736 987.595V975.223C736 975.223 726.602 952.234 723.316 948.523C720.031 944.81 707.896 933.471 707.896 928.316C707.896 923.161 702.237 921.307 706.07 914.502C709.902 907.698 708.625 904.708 707.256 901.719C705.888 898.729 708.443 777.595 708.443 777.595L710.176 780.379Z" fill="#2F2E41"/>
        <path d="M677.143 600.587C690.347 600.587 701.051 588.494 701.051 573.578C701.051 558.66 690.347 546.567 677.143 546.567C663.94 546.567 653.235 558.66 653.235 573.578C653.235 588.494 663.94 600.587 677.143 600.587Z" fill="#A0616A"/>
        <path d="M696.306 790.688L703.058 767.802L715.195 770.275L707.347 794.194C708.808 798.317 706.892 803.06 703.241 804.606C699.591 806.255 695.394 804.09 694.024 799.966C692.748 796.667 693.752 792.853 696.306 790.688Z" fill="#A0616A"/>
        <path d="M556.51 746.358L573.026 730.998L582.06 740.483L564.084 755.946C563.354 760.379 559.522 763.162 555.689 762.338C551.856 761.513 549.301 757.183 550.031 752.854C550.67 749.348 553.316 746.668 556.51 746.358Z" fill="#A0616A"/>
        <path d="M648.49 568.834C651.046 569.763 653.601 570.279 655.243 567.907C656.886 565.536 656.521 562.752 658.985 561.618C661.084 560.794 663.364 560.896 665.372 561.928C665.737 562.03 666.103 562.237 666.467 562.444C666.65 562.237 666.832 562.03 667.107 561.928C668.657 560.691 670.665 560.072 672.581 560.381C671.212 561.103 670.026 562.444 669.296 563.99C670.026 564.402 670.665 564.814 671.394 565.124C677.417 567.907 684.261 567.288 689.919 563.578C687.181 571.825 689.28 574.711 693.386 582.236L693.569 582.648C693.203 580.69 698.496 578.422 698.496 581.309C698.222 584.196 697.675 587.081 696.854 589.865C702.055 580.999 705.157 570.691 703.15 560.691C702.694 558.629 702.511 556.361 701.325 554.712C700.138 553.062 697.949 552.03 696.306 552.959C695.668 543.061 688.093 535.64 679.333 536.36C676.231 536.67 673.219 537.908 670.756 540.072C668.657 541.927 667.015 544.299 665.099 546.463C663.182 548.628 660.993 550.588 658.345 551.103C656.703 551.412 654.787 551.206 653.418 552.444C651.867 553.783 651.867 556.258 651.867 558.629C653.418 558.629 654.879 559.041 656.156 559.969C654.604 559.969 653.054 560.587 651.867 561.721C651.867 561.721 651.776 561.721 651.776 561.825C651.046 565.639 651.229 566.463 648.49 568.834Z" fill="#2F2E41"/>
        <path d="M732.716 657.494C731.621 651.412 728.244 646.05 723.499 642.854C723.316 641.824 723.042 641.205 722.495 641C715.652 638.216 696.672 625.638 696.672 625.638L695.12 611.206L660.718 609.349L651.959 625.638C651.959 625.638 629.146 628.215 629.602 637.699C624.127 645.433 599.49 680.174 584.797 703.164C577.771 714.194 572.935 722.441 573.574 723.782C575.672 728.422 572.752 725.328 569.468 726.153C566.183 726.977 567.825 729.142 567.825 732.339C567.825 735.534 556.693 742.339 556.693 742.339C563.537 745.122 572.114 756.461 572.114 756.461C572.114 756.461 580.418 746.565 581.877 745.534C583.338 744.504 584.25 742.958 588.995 741.101C593.74 739.245 591.732 737.803 592.098 733.885C592.463 729.968 593.557 732.854 600.311 729.245C607.063 725.638 601.587 726.977 603.413 722.029C605.238 717.081 604.69 719.761 610.713 715.638C614.364 713.163 617.922 709.554 622.941 703.267C626.226 699.143 630.241 693.782 635.169 686.875L635.26 686.771C635.624 692.442 635.807 698.009 635.99 703.37C636.445 718.524 635.99 731.307 634.074 734.812C631.336 739.761 626.682 756.256 622.941 770.792C620.386 780.585 625.404 790.894 634.074 793.781C635.716 794.296 637.449 794.606 639.275 794.503C662.635 793.677 696.946 791.616 703.607 787.183C707.256 787.802 710.816 788.627 714.374 789.863C714.374 789.863 716.747 776.565 717.568 774.71C718.389 772.957 718.389 771.101 721.492 766.668C724.686 762.235 722.313 762.235 720.671 758.626C719.119 755.019 721.492 756.875 725.415 749.761C729.339 742.648 725.415 747.08 724.594 741.72C723.773 736.358 724.594 739.04 727.788 731.926C730.434 726.05 731.894 718.318 733.72 703.164C734.084 700.07 734.449 696.566 734.905 692.752C736.183 680.277 734.449 666.875 732.716 657.494Z" fill="#F37527"/>
        <path d="M323.546 726.669L321.722 748.626C321.722 748.626 318.619 765.122 320.809 763.781C322.998 762.442 319.074 768.524 320.078 773.677C321.082 778.832 311.41 817.904 315.79 813.884C320.17 809.864 313.235 837.801 308.855 851.513C307.486 855.739 306.117 860.068 304.749 864.399C304.475 865.223 304.201 866.151 303.928 866.976C302.102 872.543 300.368 878.007 298.635 883.162C298.361 883.884 298.178 884.604 297.905 885.327C292.247 902.234 287.319 915.429 285.403 917.698C284.399 918.832 268.339 931.923 252.097 945.12C235.124 958.934 217.969 972.748 217.969 972.748L202 953.779C202 953.779 202.365 953.676 203.095 953.367C204.464 952.955 206.927 952.13 210.122 950.996C223.626 946.46 206.472 939.553 218.699 934.502C222.167 933.058 224.448 932.027 224.995 931.408C228.007 928.109 232.113 920.069 234.029 923.368C235.945 926.667 244.705 901.821 247.17 899.347C248.538 898.006 252.918 891.821 256.751 886.357C260.036 881.616 262.773 877.491 262.773 877.491C262.773 877.491 262.865 875.223 262.865 871.718C262.956 866.461 263.139 858.317 263.32 850.172C263.412 847.08 263.412 843.986 263.503 841.1C263.503 838.833 263.594 836.667 263.594 834.709C263.686 828.73 263.777 824.09 263.777 822.956C263.777 819.245 263.777 822.131 266.423 819.864C266.788 819.554 267.154 819.142 267.518 818.73C268.066 818.215 268.613 817.596 269.07 816.874C269.253 816.462 268.066 817.08 266.514 816.667C265.693 816.462 264.872 816.048 264.234 815.328C260.948 812.029 264.507 801.822 264.507 801.822C257.116 785.018 257.663 771.307 261.131 760.689C263.686 753.059 267.883 746.256 273.176 740.791C275.184 738.626 277.373 736.668 279.746 734.916L279.929 733.575L282.483 718.215C283.852 717.389 285.22 716.669 286.59 716.05C291.062 714.194 295.806 713.678 300.551 714.504C305.204 715.225 309.676 716.874 313.874 719.349C317.432 721.513 320.627 723.885 323.546 726.669Z" fill="#2F2E41"/>
        <path d="M278.013 689.554L279.746 707.493L278.742 730.998L324.824 724.812L329.112 689.554L323.638 689.658L278.013 689.554Z" fill="#FFB6B6"/>
        <path d="M317.25 631.721L299.913 616.257L290.787 615.638L277.282 625.432L273.997 644.504L266.15 665.948L277.647 723.885C277.647 723.885 278.742 728.008 275.914 728.523C273.085 729.04 273.449 735.123 273.449 735.123C273.449 735.123 273.997 740.483 271.26 740.895C268.522 741.308 261.223 741.41 267.609 750.689C273.997 759.967 324.55 724.916 324.55 724.916L331.851 681.411C331.851 681.411 346.085 659.865 330.756 647.494L317.25 631.721Z" fill="#F37326"/>
        <path d="M241.511 763.162C238.591 759.141 239.231 753.163 242.789 749.864C243.155 749.555 243.61 749.245 243.976 748.936L265.785 666.256L279.38 673.988L255.655 753.266C257.572 758.007 255.747 763.678 251.549 765.843C248.082 767.699 243.976 766.668 241.511 763.162Z" fill="#C78F8F"/>
        <path d="M280.384 624.608C280.384 624.608 276.461 622.236 273.815 632.443C271.716 640.586 254.378 688.834 254.105 700.587C251.185 701.307 248.995 704.194 248.903 707.493L270.347 710.689C274.089 707.081 275.093 702.338 273.632 700.895L278.285 686.566L297.722 640.896L283.304 626.257L280.384 624.608Z" fill="#F37427"/>
        <path d="M394.813 736.05C395.817 730.998 393.08 725.947 388.609 724.709C388.152 724.607 387.605 724.504 387.148 724.504L337.051 659.865L326.466 674.195L378.206 734.092C378.297 739.349 382.129 743.473 386.691 743.473C390.616 743.369 393.992 740.276 394.813 736.05Z" fill="#C78F8F"/>
        <path d="M306.756 630.071C306.756 630.071 309.402 626.05 315.699 633.885C320.718 640.174 354.845 675.225 359.499 685.74C362.419 684.916 365.431 686.462 366.799 689.453L348.732 702.853C343.986 701.514 341.249 697.596 341.978 695.637L332.306 685.018L297.357 653.369L304.749 633.061L306.756 630.071Z" fill="#FF731D"/>
        <path d="M547.659 765.122C544.648 763.988 543.004 760.275 544.008 756.875C544.1 756.565 544.191 756.256 544.374 755.946L530.595 738.936L535.797 728.008L552.495 753.678C554.776 755.327 555.779 758.421 554.958 761.204C553.954 764.503 550.852 766.359 547.932 765.225C547.75 765.225 547.659 765.122 547.659 765.122Z" fill="#FFB6B6"/>
        <path d="M459.054 635.638C458.597 638.009 458.506 640.483 458.872 642.958C458.963 643.68 459.054 644.298 459.237 645.019C459.875 647.494 460.422 649.865 460.97 651.927C461.335 653.267 461.609 654.402 461.974 655.534C463.89 662.133 465.35 665.844 466.353 666.668C466.902 667.082 467.357 667.39 467.906 667.7C470.46 669.452 472.285 670.689 471.008 673.988C470.825 674.401 470.643 674.917 470.369 675.329C470.004 676.051 469.548 676.669 469.001 677.39C468.727 677.803 468.452 678.112 468.27 678.524C467.997 679.039 467.814 679.453 467.997 679.865C468.18 680.38 468.818 680.587 470.004 680.689C470.187 680.689 470.46 680.689 470.643 680.689C470.734 680.689 470.825 680.689 470.917 680.689C471.1 680.689 471.281 680.689 471.464 680.689C473.016 680.689 474.932 681.514 477.031 682.957C483.235 687.081 490.627 695.328 490.718 695.432L536.526 748.318L537.439 747.596L539.537 745.946L540.267 745.431L541.088 744.812L544.739 742.029L546.564 740.689L534.793 716.153L533.515 713.472L532.42 711.205L509.881 664.401L500.939 648.318L498.931 644.71L490.444 629.452C485.425 620.381 474.749 617.598 466.719 623.37C466.628 623.473 466.445 623.577 466.353 623.68C462.613 626.36 460.058 630.69 459.054 635.638Z" fill="#5F9DF7"/>
        <path d="M445.184 690.689L429.215 743.266L428.667 747.494C424.652 751.823 429.671 753.266 427.846 754.4C426.021 755.534 424.652 758.73 427.208 759.348C429.762 759.967 438.066 964.913 448.925 972.852C459.784 980.79 466.445 986.563 464.437 974.913C463.616 970.172 464.803 945.017 466.445 916.667C466.628 913.472 469.548 910.069 466.993 906.872C464.437 903.677 467.266 901.719 467.449 899.141C469.73 862.028 472.376 825.431 472.376 825.431C472.376 825.431 489.349 891.306 493.729 886.152C498.109 880.997 496.375 893.574 497.745 897.388C498.84 900.482 494.094 906.667 501.12 906.771C508.146 906.872 524.755 970.894 526.397 970.79C529.683 970.687 539.081 971.099 544.648 969.76C547.385 969.141 535.248 920.688 525.028 878.832C524.207 875.534 519.828 875.43 522.656 868.936C525.485 862.44 511.341 820.791 512.618 818.935C515.812 813.782 517.089 811.616 513.896 811.307C510.702 810.998 509.79 812.956 509.607 808.008C509.424 803.06 508.877 790.792 508.877 790.792C508.877 790.792 506.596 742.442 490.444 715.638L489.076 699.761L445.184 690.689Z" fill="#2F2E41"/>
        <path d="M485.242 590.38L463.982 593.782L462.704 611.102L452.211 629.659C452.211 629.659 428.941 648.216 445.184 677.39C438.979 702.544 432.865 726.772 427.025 742.854C422.462 774.811 463.342 777.905 510.063 766.564C510.063 766.564 509.424 752.854 505.135 746.358C500.847 739.864 503.219 738.318 503.219 738.318L500.299 726.05C501.942 708.318 496.284 706.669 493.638 698.524L501.668 613.473L485.242 590.38Z" fill="#5F9DF7"/>
        <path d="M383.316 739.04C383.771 735.534 386.691 732.957 389.794 733.473C390.068 733.473 390.434 733.575 390.706 733.678L403.026 715.224L413.52 718.937L394.266 742.235C393.262 745.019 390.798 746.668 388.152 746.359C385.049 745.946 382.95 742.75 383.316 739.245C383.316 739.142 383.316 739.04 383.316 739.04Z" fill="#FFB6B6"/>
        <path d="M492.543 623.989C492.269 623.577 491.905 623.165 491.539 622.752C486.612 616.979 479.038 615.227 472.559 618.422C472.285 618.525 471.921 618.732 471.646 618.937C460.696 625.02 454.856 629.041 454.127 630.897C453.853 631.515 453.67 632.134 453.487 632.751C453.305 633.37 453.123 633.885 452.94 634.402C452.119 636.567 451.116 638.01 448.651 637.391C447.83 637.186 447.009 636.772 446.279 636.36C445.914 636.154 445.64 635.948 445.366 635.742C444.272 635.123 443.541 634.608 442.994 635.02C442.537 635.433 442.446 636.464 442.903 639.04C443.085 640.071 442.994 641.103 442.811 642.134C442.173 645.123 441.261 648.01 439.983 650.793C438.066 655.021 435.968 659.143 433.595 663.164L411.877 698.112L410.418 700.484L408.774 703.06L395.999 723.679L396.729 724.504L399.923 728.215L400.653 729.04L401.292 729.761L402.934 731.72L404.486 733.473L439.07 701.618L442.903 698.009L449.838 691.618L463.982 678.628L490.81 650.586C494.185 647.082 496.193 642.031 496.284 636.772C496.284 636.567 496.284 636.464 496.284 636.257C496.467 631.824 495.097 627.495 492.543 623.989Z" fill="#5F9DF7"/>
        <path d="M472.468 589.761C485.571 589.761 496.193 577.762 496.193 562.959C496.193 548.155 485.571 536.155 472.468 536.155C459.364 536.155 448.743 548.155 448.743 562.959C448.743 577.762 459.364 589.761 472.468 589.761Z" fill="#FFB6B6"/>
        <path d="M503.859 600.072C507.051 605.227 509.15 611.102 510.063 617.288C507.508 619.144 504.497 620.071 501.486 620.071C501.394 619.659 501.303 619.144 501.12 618.732C500.208 615.226 498.931 611.928 497.196 608.834C497.47 612.133 497.015 615.535 496.011 618.628C494.368 617.803 492.634 617.288 490.901 617.184C489.44 617.184 488.072 617.598 486.794 618.318C485.334 612.751 483.966 607.598 482.962 603.886C482.962 613.165 470.917 621.205 457.868 620.071C457.411 619.763 462.157 604.504 461.7 604.196C460.696 603.37 459.601 602.546 458.597 601.721C462.887 594.196 467.54 586.258 466.719 585.02C466.81 586.463 462.066 593.681 456.955 600.38C454.218 598.01 470.369 559.66 462.43 556.567C462.338 557.907 460.514 557.907 458.415 557.597C457.868 555.329 457.047 553.268 455.952 551.31C456.134 553.268 455.86 555.329 455.312 557.185C453.214 557.185 451.116 557.392 449.017 557.907C448.56 557.082 448.013 556.258 447.465 555.433C447.556 556.36 447.465 557.289 447.373 558.216C445.276 558.731 443.541 559.35 443.268 559.865C441.625 559.143 444.453 556.051 443.358 554.505C440.712 550.484 444.636 544.609 447.1 540.484C452.211 532.031 463.251 529.042 471.19 534.195C471.555 532.856 473.38 531.927 475.662 531.309C476.665 531.103 477.669 531 478.673 531C488.711 531.207 502.672 540.588 503.219 551.927C503.219 553.061 503.31 554.299 503.402 555.639C504.131 568.319 503.219 579.968 510.885 589.246C513.622 592.648 513.714 608.525 512.618 616.669C509.881 613.37 507.874 600.587 503.859 600.072Z" fill="#2F2E41"/>
        <path d="M275.001 574.093C272.902 579.969 267.062 591.515 266.241 597.804L266.606 597.392C267.245 598.731 268.066 599.968 268.887 601.102C270.438 599.248 272.263 597.804 274.362 596.876C273.266 599.453 272.537 602.34 272.445 605.227C274.636 613.062 284.948 609.556 290.97 608.731C296.993 616.464 304.932 618.525 315.425 614.092C318.345 614.401 321.63 614.608 323.638 612.648C325.645 610.69 324.459 607.081 325.554 604.298C333.401 584.814 326.192 577.804 319.988 568.938C318.619 566.979 318.619 564.093 316.977 562.237C314.695 559.66 311.227 558.835 307.943 558.216C309.676 558.32 311.318 557.392 312.231 555.845C313.052 554.195 313.052 552.237 312.139 550.588C310.954 548.423 308.581 547.186 306.3 546.877C304.019 546.67 301.738 546.877 299.456 547.494C297.997 547.701 296.627 548.216 295.349 548.938C294.073 549.661 293.433 551.207 293.616 552.753C293.982 554.195 294.985 555.329 296.17 555.845C297.084 556.258 298.088 556.567 299.092 556.774C294.437 556.051 289.784 556.979 285.677 559.454C280.567 562.856 277.1 568.216 275.001 574.093Z" fill="#2F2E41"/>
        <path d="M303.106 606.979C313.337 606.979 321.63 597.609 321.63 586.051C321.63 574.493 313.337 565.124 303.106 565.124C292.876 565.124 284.582 574.493 284.582 586.051C284.582 597.609 292.876 606.979 303.106 606.979Z" fill="#C78F8F"/>
        <path d="M285.22 574.814C286.315 578.526 289.327 579.66 292.155 580.381C293.069 580.587 293.981 580.794 294.894 580.999C295.258 580.484 295.624 580.072 295.989 579.66C297.54 577.804 299.365 576.361 301.463 575.432C300.551 577.495 300.004 579.762 299.73 582.03C301.463 582.34 303.197 582.545 304.932 582.752C307.943 583.474 310.954 581.411 311.775 578.011C313.326 580.896 315.242 583.68 317.798 584.814C320.809 586.051 324.185 584.917 326.01 582.03C327.47 579.762 328.474 577.082 329.021 574.402C329.752 571.206 330.116 567.392 328.748 565.329C327.653 563.68 325.645 563.68 323.821 563.783C319.805 564.093 315.882 564.917 312.048 566.155L311.684 566.979C312.322 562.444 310.954 558.113 308.216 556.67C306.391 555.64 304.292 555.845 302.193 556.052C299.456 556.155 296.81 556.774 294.254 557.804C291.334 559.042 288.871 561.31 287.138 564.299C285.22 567.289 284.308 571.618 285.22 574.814Z" fill="#2F2E41"/>
        <path d="M311.684 555.226C311.501 555.124 311.958 555.226 311.775 555.226C311.867 555.226 311.958 555.226 312.048 555.226C312.048 555.226 312.231 555.124 312.139 555.226C312.414 555.124 312.688 554.917 312.87 554.711C313.326 554.092 313.691 553.371 313.874 552.649C314.147 551.722 314.604 550.793 315.242 550.073C315.882 549.35 316.886 549.35 317.524 550.073C317.615 550.174 317.707 550.381 317.798 550.484C318.071 551.412 317.981 552.443 317.615 553.371C317.341 554.299 316.977 555.124 316.429 555.948C315.608 557.186 314.421 558.216 313.052 558.732C311.501 559.35 309.859 559.454 308.307 558.835C307.76 558.525 307.395 557.804 307.669 557.082C307.76 556.774 307.943 556.567 308.216 556.36L310.863 555.124C311.41 554.814 312.139 555.124 312.414 555.741C312.688 556.36 312.414 557.186 311.867 557.494L309.22 558.732L309.128 556.36C309.494 556.463 309.768 556.567 310.132 556.567C310.497 556.567 310.863 556.567 311.227 556.463C311.593 556.463 311.867 556.36 312.231 556.155C312.414 556.051 312.688 555.948 312.87 555.845C312.962 555.845 313.052 555.741 313.052 555.741C313.052 555.741 313.326 555.536 313.235 555.64C313.6 555.433 313.874 555.124 314.147 554.814C314.238 554.711 314.33 554.609 314.421 554.505C314.604 554.299 314.695 554.092 314.878 553.887C315.151 553.371 315.334 552.856 315.516 552.341C315.608 552.134 315.608 551.927 315.699 551.619C315.699 551.515 315.699 551.412 315.79 551.207C315.882 550.896 315.79 551.412 315.882 551.515L316.337 551.927C316.52 552.031 316.703 551.927 316.886 551.825C316.886 551.722 316.977 551.722 316.886 551.825C316.794 551.927 316.703 552.134 316.611 552.237C316.429 552.649 316.246 552.958 316.155 553.371C315.882 554.195 315.516 554.917 315.059 555.64C314.147 557.186 312.596 557.804 311.046 557.392C310.497 557.082 310.132 556.36 310.406 555.741C310.406 555.329 311.046 555.021 311.684 555.226Z" fill="#2F2E41"/>
    </g>
    <defs>
        <clipPath id="clip0_547_5587">
            <rect width="1280" height="832" fill="white"/>
        </clipPath>
    </defs>
</svg>
