<svg width="1728" height="1117" viewBox="0 0 1728 1117" fill="none"
    xmlns="http://www.w3.org/2000/svg">
    <g clip-path="url(#clip0_623_6374)">
        <mask id="mask0_623_6374" style="mask-type:luminance" maskUnits="userSpaceOnUse" x="0" y="0" width="1728" height="1117">
            <path d="M1728 0H0V1117H1728V0Z" fill="white"/>
        </mask>
        <g mask="url(#mask0_623_6374)">
            <path d="M1728 0H0V1117H1728V0Z" fill="#3F3D56"/>
            <mask id="mask1_623_6374" style="mask-type:luminance" maskUnits="userSpaceOnUse" x="-218" y="-387" width="2194" height="1504">
                <path d="M1976 -387H-218V1117H1976V-387Z" fill="white"/>
            </mask>
            <g mask="url(#mask1_623_6374)">
                <path d="M589.323 1136.02V1160.38H-91.1592V1135.91L-87.557 1132.53L128.235 935.517C131.666 932.471 138.184 931.709 142.987 933.776C144.016 934.211 144.874 934.755 145.732 935.517L290.336 1067.59L393.258 974.355C396.689 971.309 403.207 970.547 408.01 972.723C409.039 973.158 409.897 973.702 410.583 974.355L585.378 1132.64L589.323 1136.02Z" fill="#6D6B8D"/>
                <path d="M1059.3 1102.46V1143.82H379.024V1102.28L382.625 1096.55L598.352 762.194C601.782 757.024 608.298 755.732 613.1 759.239C614.129 759.978 614.986 760.901 615.844 762.194L760.405 986.33L863.296 828.105C866.725 822.936 873.242 821.643 878.043 825.336C879.072 826.074 879.929 826.997 880.615 828.105L1055.36 1096.74L1059.3 1102.46Z" fill="#6D6B8D"/>
                <path d="M361.149 1102.46V1143.82H-319.13V1102.28L-315.528 1096.55L-99.8011 762.194C-96.3714 757.024 -89.855 755.732 -85.0535 759.239C-84.0246 759.978 -83.1672 760.901 -82.3097 762.194L62.2515 986.33L165.142 828.105C168.572 822.936 175.088 821.643 179.89 825.336C180.919 826.074 181.776 826.997 182.462 828.105L357.204 1096.74L361.149 1102.46Z" fill="#6D6B8D"/>
                <path d="M1533.77 1080.2V1126.04H853.289V1080L856.891 1073.65L1072.68 703.073C1076.11 697.343 1082.63 695.911 1087.44 699.799C1088.46 700.617 1089.32 701.641 1090.18 703.073L1234.78 951.491L1337.71 776.125C1341.14 770.395 1347.66 768.963 1352.46 773.056C1353.49 773.874 1354.35 774.897 1355.03 776.125L1529.83 1073.86L1533.77 1080.2Z" fill="#6D6B8D"/>
                <path d="M2107.98 1080.2V1126.04H1427.5V1080L1431.1 1073.65L1646.89 703.073C1650.33 697.343 1656.84 695.911 1661.65 699.799C1662.68 700.617 1663.53 701.641 1664.39 703.073L1809 951.491L1911.92 776.125C1915.35 770.395 1921.87 768.963 1926.67 773.056C1927.7 773.874 1928.56 774.897 1929.24 776.125L2104.04 1073.86L2107.98 1080.2Z" fill="#6D6B8D"/>
                <path d="M401.634 1071.81C409.652 1071.81 417.671 1074.31 424.773 1079.04H378.494C385.596 1074.31 393.615 1071.81 401.634 1071.81Z" fill="#FF731D"/>
                <path d="M324.501 1066.38C337.678 1066.38 350.632 1070.76 361.353 1079.04H287.648C298.369 1071.01 311.1 1066.38 324.501 1066.38Z" fill="#FF731D"/>
                <path d="M-179.834 1007.83C-176.073 923.674 -120.107 859.422 -54.6269 864.256C-3.74768 867.951 39.3889 912.87 53.1042 975.7C54.6527 975.7 55.98 975.7 57.5284 975.7C110.177 975.7 156.632 1020.33 171.454 1085.15C206.405 1065.53 247.329 1078.61 271 1117H-99.312C-143.555 1117.28 -179.613 1071.22 -179.834 1014.08C-179.834 1012.66 -179.834 1011.52 -179.834 1010.1C-180.055 1009.25 -180.055 1008.68 -179.834 1007.83Z" fill="#FF731D"/>
                <path d="M1458.52 919.329C1462.28 847.777 1518.22 793.147 1583.67 797.256C1634.53 800.398 1677.64 838.592 1691.35 892.014C1692.9 892.014 1694.23 892.014 1695.78 892.014C1748.4 892.014 1794.84 929.965 1809.65 985.079C1844.59 968.4 1885.49 979.519 1909.15 1012.15H1539C1494.78 1012.39 1458.74 973.235 1458.52 924.647C1458.52 923.438 1458.52 922.471 1458.52 921.263C1458.3 920.538 1458.3 920.054 1458.52 919.329Z" fill="#FF731D"/>
                <path d="M2018.85 1101.67V1126.04H1338.37V1101.56L1341.97 1098.19L1557.76 901.171C1561.19 898.125 1567.71 897.363 1572.52 899.43C1573.54 899.865 1574.4 900.409 1575.26 901.171L1719.86 1033.24L1822.79 940.009C1826.22 936.963 1832.74 936.201 1837.54 938.377C1838.57 938.812 1839.42 939.356 1840.11 940.009L2014.91 1098.3L2018.85 1101.67Z" fill="#6D6B8D"/>
                <mask id="mask2_623_6374" style="mask-type:luminance" maskUnits="userSpaceOnUse" x="221" y="258" width="66" height="116">
                    <path d="M286.28 258H221V373.26H286.28V258Z" fill="white"/>
                </mask>
                <g mask="url(#mask2_623_6374)">
                    <g opacity="0.8">
                        <path d="M253.747 258L259.308 315.688H248.186L253.747 258Z" fill="#C7C7C7" fill-opacity="0.8"/>
                        <path d="M286.27 317.82L253.616 323.271L253.598 312.636L286.27 317.82Z" fill="#C7C7C7" fill-opacity="0.8"/>
                        <path d="M253.747 373.26L248.186 315.572H259.308L253.747 373.26Z" fill="#C7C7C7" fill-opacity="0.8"/>
                        <path d="M221.01 318.088L253.664 312.637L253.682 323.272L221.01 318.088Z" fill="#C7C7C7" fill-opacity="0.8"/>
                    </g>
                </g>
                <mask id="mask3_623_6374" style="mask-type:luminance" maskUnits="userSpaceOnUse" x="1580" y="218" width="66" height="116">
                    <path d="M1645.28 218H1580V333.26H1645.28V218Z" fill="white"/>
                </mask>
                <g mask="url(#mask3_623_6374)">
                    <g opacity="0.8">
                        <path d="M1612.75 218L1618.31 275.688H1607.19L1612.75 218Z" fill="#C7C7C7" fill-opacity="0.8"/>
                        <path d="M1645.27 277.82L1612.62 283.271L1612.6 272.636L1645.27 277.82Z" fill="#C7C7C7" fill-opacity="0.8"/>
                        <path d="M1612.75 333.26L1607.19 275.572H1618.31L1612.75 333.26Z" fill="#C7C7C7" fill-opacity="0.8"/>
                        <path d="M1580.01 278.088L1612.66 272.637L1612.68 283.272L1580.01 278.088Z" fill="#C7C7C7" fill-opacity="0.8"/>
                    </g>
                </g>
                <mask id="mask4_623_6374" style="mask-type:luminance" maskUnits="userSpaceOnUse" x="107" y="589" width="76" height="134">
                    <path d="M182.52 589H107V722.34H182.52V589Z" fill="white"/>
                </mask>
                <g mask="url(#mask4_623_6374)">
                    <g opacity="0.93">
                        <path d="M144.884 589L151.317 655.737H138.451L144.884 589Z" fill="#C7C7C7" fill-opacity="0.8"/>
                        <path d="M182.508 658.203L144.732 664.51L144.711 652.207L182.508 658.203Z" fill="#C7C7C7" fill-opacity="0.8"/>
                        <path d="M144.884 722.34L138.451 655.603H151.317L144.884 722.34Z" fill="#C7C7C7" fill-opacity="0.8"/>
                        <path d="M107.012 658.514L144.788 652.207L144.809 664.511L107.012 658.514Z" fill="#C7C7C7" fill-opacity="0.8"/>
                    </g>
                </g>
                <mask id="mask5_623_6374" style="mask-type:luminance" maskUnits="userSpaceOnUse" x="1151" y="260" width="66" height="89">
                    <path d="M1152 336.08L1194.52 348.273L1216.05 273.193L1173.53 261L1152 336.08Z" fill="white"/>
                </mask>
                <g mask="url(#mask5_623_6374)">
                    <g opacity="0.73">
                        <path d="M1173.19 342.157L1180.34 303.54L1187.59 305.618L1173.19 342.157Z" fill="#C7C7C7" fill-opacity="0.8"/>
                        <path d="M1163.18 297.116L1185.47 299.664L1183.49 306.594L1163.18 297.116Z" fill="#C7C7C7" fill-opacity="0.8"/>
                        <path d="M1194.72 267.077L1187.57 305.693L1180.32 303.616L1194.72 267.077Z" fill="#C7C7C7" fill-opacity="0.8"/>
                        <path d="M1205.74 309.13L1183.45 306.582L1185.43 299.651L1205.74 309.13Z" fill="#C7C7C7" fill-opacity="0.8"/>
                    </g>
                </g>
                <mask id="mask6_623_6374" style="mask-type:luminance" maskUnits="userSpaceOnUse" x="1351" y="509" width="81" height="139">
                    <path d="M1351.03 646.462L1428.43 647.947L1431.05 511.287L1353.65 509.802L1351.03 646.462Z" fill="white"/>
                </mask>
                <g mask="url(#mask6_623_6374)">
                    <g opacity="0.94">
                        <path d="M1389.61 647.203L1384.32 578.677L1397.51 578.93L1389.61 647.203Z" fill="#C7C7C7" fill-opacity="0.8"/>
                        <path d="M1352.4 575.537L1391.24 569.816L1391.02 582.426L1352.4 575.537Z" fill="#C7C7C7" fill-opacity="0.8"/>
                        <path d="M1392.23 510.543L1397.51 579.068L1384.32 578.815L1392.23 510.543Z" fill="#C7C7C7" fill-opacity="0.8"/>
                        <path d="M1429.79 576.703L1390.95 582.424L1391.17 569.814L1429.79 576.703Z" fill="#C7C7C7" fill-opacity="0.8"/>
                    </g>
                </g>
                <mask id="mask7_623_6374" style="mask-type:luminance" maskUnits="userSpaceOnUse" x="1593" y="490" width="81" height="139">
                    <path d="M1593 626.66L1670.4 628.145L1673.02 491.485L1595.62 490L1593 626.66Z" fill="white"/>
                </mask>
                <g mask="url(#mask7_623_6374)">
                    <g opacity="0.94">
                        <path d="M1631.58 627.401L1626.29 558.875L1639.48 559.128L1631.58 627.401Z" fill="#C7C7C7" fill-opacity="0.8"/>
                        <path d="M1594.37 555.735L1633.21 550.014L1632.99 562.624L1594.37 555.735Z" fill="#C7C7C7" fill-opacity="0.8"/>
                        <path d="M1634.2 490.741L1639.48 559.266L1626.29 559.013L1634.2 490.741Z" fill="#C7C7C7" fill-opacity="0.8"/>
                        <path d="M1671.76 556.901L1632.92 562.622L1633.14 550.012L1671.76 556.901Z" fill="#C7C7C7" fill-opacity="0.8"/>
                    </g>
                </g>
                <mask id="mask8_623_6374" style="mask-type:luminance" maskUnits="userSpaceOnUse" x="1414" y="345" width="66" height="89">
                    <path d="M1415 421.08L1457.52 433.273L1479.05 358.193L1436.53 346L1415 421.08Z" fill="white"/>
                </mask>
                <g mask="url(#mask8_623_6374)">
                    <g opacity="0.73">
                        <path d="M1436.19 427.157L1443.34 388.54L1450.59 390.618L1436.19 427.157Z" fill="#C7C7C7" fill-opacity="0.8"/>
                        <path d="M1426.18 382.116L1448.47 384.664L1446.49 391.594L1426.18 382.116Z" fill="#C7C7C7" fill-opacity="0.8"/>
                        <path d="M1457.72 352.077L1450.57 390.693L1443.32 388.616L1457.72 352.077Z" fill="#C7C7C7" fill-opacity="0.8"/>
                        <path d="M1468.74 394.13L1446.45 391.582L1448.43 384.651L1468.74 394.13Z" fill="#C7C7C7" fill-opacity="0.8"/>
                    </g>
                </g>
                <mask id="mask9_623_6374" style="mask-type:luminance" maskUnits="userSpaceOnUse" x="319" y="456" width="65" height="88">
                    <path d="M319 531.08L361.523 543.273L383.052 468.194L340.529 456L319 531.08Z" fill="white"/>
                </mask>
                <g mask="url(#mask9_623_6374)">
                    <g opacity="0.73">
                        <path d="M340.193 537.157L347.343 498.54L354.593 500.618L340.193 537.157Z" fill="#C7C7C7" fill-opacity="0.8"/>
                        <path d="M330.183 492.116L352.473 494.664L350.493 501.594L330.183 492.116Z" fill="#C7C7C7" fill-opacity="0.8"/>
                        <path d="M361.723 462.077L354.573 500.693L347.323 498.616L361.723 462.077Z" fill="#C7C7C7" fill-opacity="0.8"/>
                        <path d="M372.743 504.13L350.453 501.582L352.433 494.651L372.743 504.13Z" fill="#C7C7C7" fill-opacity="0.8"/>
                    </g>
                </g>
            </g>
        </g>
    </g>
    <defs>
        <clipPath id="clip0_623_6374">
            <rect width="1728" height="1117" fill="white"/>
        </clipPath>
    </defs>
</svg>
