<svg width="678" height="288" viewBox="0 0 678 288" fill="none" xmlns="http://www.w3.org/2000/svg">
<path d="M259.478 190.682L261.457 242.989H256.681V248.923H270.122V242.989H266.165L266.438 190.682H259.478Z" fill="#3F3D56"/>
<path d="M254.293 234.601C256.34 234.601 257.977 236.238 257.977 238.284V253.56C257.977 255.606 256.34 257.243 254.293 257.243C252.246 257.243 250.608 255.606 250.608 253.56V238.284C250.608 236.238 252.246 234.601 254.293 234.601Z" fill="#3F3D56"/>
<path d="M273.056 234.601C275.103 234.601 276.74 236.238 276.74 238.284V253.56C276.74 255.606 275.103 257.243 273.056 257.243C271.009 257.243 269.371 255.606 269.371 253.56V238.284C269.371 236.238 271.009 234.601 273.056 234.601Z" fill="#3F3D56"/>
<path d="M303.213 158.083L227.137 154.605L239.009 149.217L305.67 150.172L303.213 158.083Z" fill="#5F9DF7"/>
<path d="M0 165.721L9.21103 162.311L294.344 169.677L306.147 164.289L301.235 197.842L74.7117 173.7L0 165.721Z" fill="#5F9DF7"/>
<path d="M73.3471 185.226L74.7117 173.7L301.235 197.842L300.007 214.824L73.3471 185.226Z" fill="#3F3D56"/>
<path d="M225.704 219.325C238.667 219.325 249.175 208.149 249.175 194.364C249.175 180.579 238.667 169.404 225.704 169.404C212.742 169.404 202.233 180.579 202.233 194.364C202.233 208.149 212.742 219.325 225.704 219.325Z" fill="#3F3D56"/>
<path d="M225.704 207.185C235.238 207.185 242.966 199.461 242.966 189.931C242.966 180.402 235.238 172.677 225.704 172.677C216.171 172.677 208.442 180.402 208.442 189.931C208.442 199.461 216.171 207.185 225.704 207.185Z" fill="#5F9DF7"/>
<path d="M418.522 190.682L416.543 242.989H421.319V248.923H407.878V242.989H411.835L411.562 190.682H418.522Z" fill="#3F3D56"/>
<path d="M423.707 234.601C425.754 234.601 427.392 236.238 427.392 238.284V253.56C427.392 255.606 425.754 257.243 423.707 257.243C421.66 257.243 420.023 255.606 420.023 253.56V238.284C420.023 236.238 421.66 234.601 423.707 234.601Z" fill="#3F3D56"/>
<path d="M404.944 234.601C406.991 234.601 408.629 236.238 408.629 238.284V253.56C408.629 255.606 406.991 257.243 404.944 257.243C402.897 257.243 401.26 255.606 401.26 253.56V238.284C401.26 236.238 402.897 234.601 404.944 234.601Z" fill="#3F3D56"/>
<path d="M374.787 158.083L450.863 154.605L438.991 149.217L372.33 150.172L374.787 158.083Z" fill="#5F9DF7"/>
<path d="M347.563 147.444L344.151 71.4033L338.693 83.2697L339.716 149.899L347.563 147.444Z" fill="#5F9DF7"/>
<path d="M678 165.721L668.857 162.311L383.725 169.677L371.853 164.289L376.765 197.842L603.288 173.7L678 165.721Z" fill="#5F9DF7"/>
<path d="M604.721 185.226L603.288 173.7L376.765 197.842L377.993 214.824L604.721 185.226Z" fill="#3F3D56"/>
<path d="M452.364 219.325C465.327 219.325 475.835 208.149 475.835 194.364C475.835 180.579 465.327 169.404 452.364 169.404C439.401 169.404 428.893 180.579 428.893 194.364C428.893 208.149 439.401 219.325 452.364 219.325Z" fill="#3F3D56"/>
<path d="M452.364 207.185C461.898 207.185 469.626 199.461 469.626 189.931C469.626 180.402 461.898 172.677 452.364 172.677C442.83 172.677 435.102 180.402 435.102 189.931C435.102 199.461 442.83 207.185 452.364 207.185Z" fill="#5F9DF7"/>
<path d="M382.087 148.603L380.995 156.855L380.381 201.32C380.313 204.594 379.904 207.867 379.153 211.073C376.97 220.279 371.921 228.668 364.484 234.806C357.729 240.33 348.45 244.49 336.237 243.808C303.623 241.83 300.757 214.142 300.757 214.142L301.985 163.88L302.122 156.992L303.623 144.58C303.623 144.58 307.58 109.526 344.083 110.549C380.586 111.572 382.087 148.603 382.087 148.603Z" fill="#5F9DF7"/>
<path d="M311.606 137.01L319.043 125.143L328.39 122.211H360.458L368.373 125.143L375.537 137.01L362.437 131.076H325.729L311.606 137.01Z" fill="#E6E6E6"/>
<path d="M338.761 222.189L340.058 255.742H336.919V259.561H345.584V255.742H343.06L343.264 222.189H338.761Z" fill="#3F3D56"/>
<path d="M335.418 250.355C336.714 250.355 337.806 251.446 337.806 252.742V262.562C337.806 263.858 336.714 264.949 335.418 264.949C334.122 264.949 333.03 263.858 333.03 262.562V252.742C333.098 251.446 334.122 250.355 335.418 250.355Z" fill="#3F3D56"/>
<path d="M347.495 250.355C348.791 250.355 349.883 251.446 349.883 252.742V262.562C349.883 263.858 348.791 264.949 347.495 264.949C346.198 264.949 345.107 263.858 345.107 262.562V252.742C345.107 251.446 346.198 250.355 347.495 250.355Z" fill="#3F3D56"/>
</svg>
