<?xml version="1.0" encoding="utf-8"?>
<!-- Generator: Adobe Illustrator 26.3.1, SVG Export Plug-In . SVG Version: 6.00 Build 0)  -->
<svg version="1.1" id="Layer_1" xmlns="http://www.w3.org/2000/svg" xmlns:xlink="http://www.w3.org/1999/xlink" x="0px" y="0px"
	 viewBox="0 0 722.7 481" style="enable-background:new 0 0 722.7 481;" xml:space="preserve">
<style type="text/css">
	.st0{fill:#A0616A;}
	.st1{fill:#2F2E41;}
	.st2{fill:#F37527;}
	.st3{fill:#C78F8F;}
	.st4{fill:#E6E6E6;}
	.st5{fill:#FFB6B6;}
	.st6{fill:#F37326;}
	.st7{fill:#F37427;}
	.st8{fill:#FF731D;}
	.st9{fill:#5F9DF7;}
</style>
<polygon class="st0" points="677.4,456.5 669.3,461.8 645.1,433 657.1,425.2 "/>
<path class="st1" d="M683.2,464.8l-25,16.2l-0.2-0.3c-3.5-5.4-2-12.5,3.4-16l0,0l2.3-6.4l10.8-2.1l2.2-1.4L683.2,464.8z"/>
<polygon class="st0" points="538.3,470.3 528.6,470.3 524,433 538.3,433 "/>
<path class="st1" d="M538.6,480.4l-29.8,0V480c0-6.4,5.2-11.6,11.6-11.6h0l5.4-4.1l10.1,4.1l2.6,0L538.6,480.4z"/>
<path class="st1" d="M638.5,241.9l-86.8,1.9l-8.6,10.8c0,0,0.7-3.8,0.1,0.4s-17.4,87.2-14.2,90s-6,22-6.7,23.2s-7.9,59.1,0,63.8
	l3,20.2h13.9c0,0,13.9-16.1,11.1-19s5.2-12.6,5.5-17.8s3.2-28.8,1-32.5s-5.3-18,0.4-23.5s32.5-73.1,32.5-73.1s7.8,79.2,7.8,85.4
	c0,8.1,5.3,4.1,5.3,11.2c0,1.4,17.3,38.3,28.9,49.8l24,18.5l11.1-8.3v-12c0,0-10.3-22.3-13.9-25.9S636,390.4,636,385.4
	s-6.2-6.8-2-13.4s2.8-9.5,1.3-12.4s1.3-120.4,1.3-120.4L638.5,241.9z"/>
<circle class="st0" cx="602.3" cy="41.3" r="26.2"/>
<path class="st0" d="M623.3,251.9l7.4-22.2l13.3,2.4l-8.6,23.2c1.6,4-0.5,8.6-4.5,10.1c-4,1.6-8.6-0.5-10.1-4.5
	C619.4,257.7,620.5,254,623.3,251.9L623.3,251.9z"/>
<path class="st0" d="M470.1,208.9l18.1-14.9l9.9,9.2l-19.7,15c-0.8,4.3-5,7-9.2,6.2s-7-5-6.2-9.2
	C463.7,211.8,466.6,209.2,470.1,208.9z"/>
<path class="st1" d="M570.9,36.7c2.8,0.9,5.6,1.4,7.4-0.9s1.4-5,4.1-6.1c2.3-0.8,4.8-0.7,7,0.3c0.4,0.1,0.8,0.3,1.2,0.5
	c0.2-0.2,0.4-0.4,0.7-0.5c1.7-1.2,3.9-1.8,6-1.5c-1.5,0.7-2.8,2-3.6,3.5c0.8,0.4,1.5,0.8,2.3,1.1c6.6,2.7,14.1,2.1,20.3-1.5
	c-3,8-0.7,10.8,3.8,18.1l0.2,0.4c-0.4-1.9,5.4-4.1,5.4-1.3c-0.3,2.8-0.9,5.6-1.8,8.3c5.7-8.6,9.1-18.6,6.9-28.3
	c-0.5-2-0.7-4.2-2-5.8c-1.3-1.6-3.7-2.6-5.5-1.7c-0.7-9.6-9-16.8-18.6-16.1c-3.4,0.3-6.7,1.5-9.4,3.6c-2.3,1.8-4.1,4.1-6.2,6.2
	c-2.1,2.1-4.5,4-7.4,4.5c-1.8,0.3-3.9,0.1-5.4,1.3c-1.7,1.3-1.7,3.7-1.7,6c1.7,0,3.3,0.4,4.7,1.3c-1.7,0-3.4,0.6-4.7,1.7
	c0,0-0.1,0-0.1,0.1C573.7,33.6,573.9,34.4,570.9,36.7z"/>
<path class="st2" d="M663.2,122.7c-1.2-5.9-4.9-11.1-10.1-14.2c-0.2-1-0.5-1.6-1.1-1.8c-7.5-2.7-28.3-14.9-28.3-14.9l-1.7-14
	l-37.7-1.8l-9.6,15.8c0,0-25,2.5-24.5,11.7c-6,7.5-33,41.2-49.1,63.5c-7.7,10.7-13,18.7-12.3,20c2.3,4.5-0.9,1.5-4.5,2.3
	c-3.6,0.8-1.8,2.9-1.8,6s-12.2,9.7-12.2,9.7c7.5,2.7,16.9,13.7,16.9,13.7s9.1-9.6,10.7-10.6s2.6-2.5,7.8-4.3c5.2-1.8,3-3.2,3.4-7
	c0.4-3.8,1.6-1,9-4.5s1.4-2.2,3.4-7c2-4.8,1.4-2.2,8-6.2c4-2.4,7.9-5.9,13.4-12c3.6-4,8-9.2,13.4-15.9c0,0,0.1-0.1,0.1-0.1
	c0.4,5.5,0.6,10.9,0.8,16.1c0.5,14.7,0,27.1-2.1,30.5c-3,4.8-8.1,20.8-12.2,34.9c-2.8,9.5,2.7,19.5,12.2,22.3
	c1.8,0.5,3.7,0.8,5.7,0.7c25.6-0.8,63.2-2.8,70.5-7.1c4,0.6,7.9,1.4,11.8,2.6c0,0,2.6-12.9,3.5-14.7c0.9-1.7,0.9-3.5,4.3-7.8
	c3.5-4.3,0.9-4.3-0.9-7.8c-1.7-3.5,0.9-1.7,5.2-8.6c4.3-6.9,0-2.6-0.9-7.8c-0.9-5.2,0-2.6,3.5-9.5c2.9-5.7,4.5-13.2,6.5-27.9
	c0.4-3,0.8-6.4,1.3-10.1C667,144.8,665.1,131.8,663.2,122.7z"/>
<polygon class="st3" points="79.6,426.5 85.8,433 114.4,411.8 105.3,402.2 "/>
<path class="st1" d="M89.7,430.1l-7-6.5l-1.7-1.6l-17.7,14.2l4.6,4.9l5.4-3.5l-2.5,6.6L83.1,457c1.5,1.6,4,1.7,5.7,0.2
	c1-0.9,1.4-2.2,1.2-3.5l-2.6-17.1l4.6-4.4L89.7,430.1z"/>
<path class="st1" d="M214.8,189.8l-2,21.3c0,0-3.4,16-1,14.7s-1.9,4.6-0.8,9.6s-9.5,42.9-4.7,39s-2.8,23.2-7.6,36.5
	c-1.5,4.1-3,8.3-4.5,12.5c-0.3,0.8-0.6,1.7-0.9,2.5c-2,5.4-3.9,10.7-5.8,15.7c-0.3,0.7-0.5,1.4-0.8,2.1c0,0,0,0,0,0
	c-6.2,16.4-11.6,29.2-13.7,31.4c-1.1,1.1-18.7,13.8-36.5,26.6c-18.6,13.4-37.4,26.8-37.4,26.8l-17.5-18.4c0,0,0.4-0.1,1.2-0.4
	c1.5-0.4,4.2-1.2,7.7-2.3c14.8-4.4-4-11.1,9.4-16c3.8-1.4,6.3-2.4,6.9-3c3.3-3.2,7.8-11,9.9-7.8s11.7-20.9,14.4-23.3
	c1.5-1.3,6.3-7.3,10.5-12.6c3.6-4.6,6.6-8.6,6.6-8.6s0.1-2.2,0.1-5.6c0.1-5.1,0.3-13,0.5-20.9c0,0,0,0,0,0c0.1-3,0.1-6,0.2-8.8
	c0-2.2,0.1-4.3,0.1-6.2c0.1-5.8,0.2-10.3,0.2-11.4c0-3.6,0-0.8,2.9-3c0.4-0.3,0.8-0.7,1.2-1.1c0.6-0.5,1.2-1.1,1.7-1.8
	c0.2-0.4-1.1,0.2-2.8-0.2c-0.9-0.2-1.8-0.6-2.5-1.3c-3.6-3.2,0.3-13.1,0.3-13.1c-8.1-16.3-7.5-29.6-3.7-39.9
	c2.8-7.4,7.4-14,13.2-19.3c2.2-2.1,4.6-4,7.2-5.7l0.2-1.3l2.8-14.9c1.5-0.8,3-1.5,4.5-2.1c4.9-1.8,10.1-2.3,15.3-1.5
	c5.1,0.7,10,2.3,14.6,4.7C208.1,184.8,211.6,187.1,214.8,189.8z"/>
<polygon class="st3" points="138,459.7 146.9,460.5 154.4,425.7 141.3,424.5 "/>
<path class="st1" d="M163.7,473.3l-13.2-11.1l0.6-6.4l-3.1-0.1l-9.5-0.3h0l-2.3-0.1l-4,22.3l6.7,0.6l1.8-6.2l2.5,6.6l3.5,0.3
	l14.2,1.3c0.1,0,0.2,0,0.4,0c1.1,0,2.2-0.5,3-1.3c0.6-0.6,0.9-1.4,1-2.3C165.2,475.4,164.7,474.1,163.7,473.3z"/>
<path class="st1" d="M187.6,341.7c-3.4,18.5-17.7,61.7-26.4,87c-4,11.6-6.7,19.4-6.7,19.4l-4.5-1.4h0l-7.6-2.4l-2.8-0.9h0l-3.4-1.1
	c0,0,0.4-20.7,0.4-40.6c0-8.4,0-16.6-0.2-23.1c-0.2-7.1-0.5-12.2-1-13.2c-2.1-4.1,1.4-4.6,5.1-5.6c3.7-1,0.8-2.6-0.6-6
	c-1-2.2,1-5.2,2.3-6.9c0.4-0.5,0.8-0.9,1.2-1.4c0,0-0.7-0.2-1.8-0.6c3.6-4.6,6.6-8.6,6.6-8.6s0.1-2.2,0.1-5.6
	c0.1-5.1,0.3-13,0.5-20.9c0,0,0,0,0,0c0.1-3,0.1-6,0.2-8.8c5.7,4.4,11.3,8.7,16.3,12.7c0,0,0,0,0,0c12.1,9.6,21.2,17.2,22.5,19.7
	C188.5,334.5,188.3,337.4,187.6,341.7z"/>
<path class="st4" d="M721.7,481H1c-0.6,0-1-0.4-1-1s0.4-1,1-1h720.7c0.6,0,1,0.4,1,1S722.3,481,721.7,481z"/>
<polygon class="st5" points="164.9,153.8 166.8,171.2 165.7,194 216.2,188 220.9,153.8 214.9,153.9 "/>
<path class="st6" d="M207.9,97.7l-19-15l0,0l-10-0.6l-14.8,9.5l-3.6,18.5l-8.6,20.8l12.6,56.2c0,0,1.2,4-1.9,4.5s-2.7,6.4-2.7,6.4
	s0.6,5.2-2.4,5.6s-11,0.5-4,9.5s62.4-25,62.4-25l8-42.2c0,0,15.6-20.9-1.2-32.9L207.9,97.7z"/>
<path class="st3" d="M124.9,225.2c-3.2-3.9-2.5-9.7,1.4-12.9c0.4-0.3,0.9-0.6,1.3-0.9l23.9-80.2l14.9,7.5l-26,76.9
	c2.1,4.6,0.1,10.1-4.5,12.2C132.1,229.6,127.6,228.6,124.9,225.2L124.9,225.2z"/>
<path class="st7" d="M167.5,90.8c0,0-4.3-2.3-7.2,7.6c-2.3,7.9-21.3,54.7-21.6,66.1c-3.2,0.7-5.6,3.5-5.7,6.7l23.5,3.1
	c4.1-3.5,5.2-8.1,3.6-9.5l5.1-13.9l21.3-44.3l-15.8-14.2L167.5,90.8z"/>
<path class="st3" d="M292.9,198.9c1.1-4.9-1.9-9.8-6.8-11c-0.5-0.1-1.1-0.2-1.6-0.2L229.6,125L218,138.9l56.7,58.1
	c0.1,5.1,4.3,9.1,9.3,9.1C288.3,206,292,203,292.9,198.9L292.9,198.9z"/>
<path class="st8" d="M196.4,96.1c0,0,2.9-3.9,9.8,3.7c5.5,6.1,42.9,40.1,48,50.3c3.2-0.8,6.5,0.7,8,3.6l-19.8,13
	c-5.2-1.3-8.2-5.1-7.4-7l-10.6-10.3l-38.3-30.7l8.1-19.7L196.4,96.1z"/>
<path class="st5" d="M460.4,227.1c-3.3-1.1-5.1-4.7-4-8c0.1-0.3,0.2-0.6,0.4-0.9l-15.1-16.5l5.7-10.6l18.3,24.9
	c2.5,1.6,3.6,4.6,2.7,7.3c-1.1,3.2-4.5,5-7.7,3.9l0,0l0,0C460.5,227.2,460.4,227.1,460.4,227.1z"/>
<path class="st9" d="M363.3,101.5c-0.5,2.3-0.6,4.7-0.2,7.1c0.1,0.7,0.2,1.3,0.4,2c0.7,2.4,1.3,4.7,1.9,6.7c0.4,1.3,0.7,2.4,1.1,3.5
	c2.1,6.4,3.7,10,4.8,10.8c0.6,0.4,1.1,0.7,1.7,1c2.8,1.7,4.8,2.9,3.4,6.1c-0.2,0.4-0.4,0.9-0.7,1.3c-0.4,0.7-0.9,1.3-1.5,2
	c-0.3,0.4-0.6,0.7-0.8,1.1c-0.3,0.5-0.5,0.9-0.3,1.3c0.2,0.5,0.9,0.7,2.2,0.8c0.2,0,0.5,0,0.7,0c0.1,0,0.2,0,0.3,0
	c0.2,0,0.4,0,0.6,0c1.7,0,3.8,0.8,6.1,2.2c6.8,4,14.9,12,15,12.1l50.2,51.3l1-0.7l2.3-1.6l0.8-0.5l0.9-0.6l4-2.7l2-1.3l-12.9-23.8
	l-1.4-2.6l-1.2-2.2l-24.7-45.4l-9.8-15.6l-2.2-3.5l-9.3-14.8c-5.5-8.8-17.2-11.5-26-5.9c0,0,0,0,0,0c-0.1,0.1-0.3,0.2-0.4,0.3
	C367.2,92.5,364.4,96.7,363.3,101.5z"/>
<polygon class="st5" points="366.6,460 357.4,459.9 353.4,423.6 366.9,423.7 "/>
<path class="st1" d="M369.1,455.7l-2.4-0.2l-9.8-0.7l-3.2-0.2l-0.1,6.6l-14.7,10c-1.9,1.3-2.4,3.8-1.1,5.7c0.8,1.1,2,1.8,3.4,1.8
	l18.3,0.2l3.2-6.5l1.2,6.5l6.9,0.1L369.1,455.7z"/>
<polygon class="st5" points="463.4,453.3 454.6,456 439.8,422.6 452.8,418.6 "/>
<path class="st1" d="M464.5,448.5l-2.3,0.6l-9.5,2.3l-3.1,0.8l1.9,6.3l-11,13.9c-1.4,1.8-1.1,4.4,0.7,5.8c1.1,0.8,2.5,1.1,3.7,0.7
	l17.5-5.4l1.1-7.1l3.1,5.9l6.6-2L464.5,448.5z"/>
<path class="st1" d="M348.1,154.9l-17.5,51L330,210c-4.4,4.2,1.1,5.6-0.9,6.7s-3.5,4.2-0.7,4.8s11.9,199.4,23.8,207.1
	s19.2,13.3,17,2c-0.9-4.6,0.4-29,2.2-56.5c0.2-3.1,3.4-6.4,0.6-9.5s0.3-5,0.5-7.5c2.5-36,5.4-71.5,5.4-71.5s18.6,63.9,23.4,58.9
	s2.9,7.2,4.4,10.9c1.2,3-4,9,3.7,9.1s25.9,62.2,27.7,62.1c3.6-0.1,13.9,0.3,20-1c3-0.6-10.3-47.6-21.5-88.2
	c-0.9-3.2-5.7-3.3-2.6-9.6s-12.4-46.7-11-48.5c3.5-5,4.9-7.1,1.4-7.4s-4.5,1.6-4.7-3.2s-0.8-16.7-0.8-16.7s-2.5-46.9-20.2-72.9
	l-1.5-15.4L348.1,154.9z"/>
<path class="st9" d="M392,57.6l-23.3,3.3l-1.4,16.8l-11.5,18c0,0-25.5,18-7.7,46.3c-6.8,24.4-13.5,47.9-19.9,63.5
	c-5,31,39.8,34,91,23c0,0-0.7-13.3-5.4-19.6s-2.1-7.8-2.1-7.8l-3.2-11.9c1.8-17.2-4.4-18.8-7.3-26.7L410,80L392,57.6z"/>
<path class="st5" d="M280.3,201.8c0.5-3.4,3.7-5.9,7.1-5.4c0.3,0,0.7,0.1,1,0.2l13.5-17.9l11.5,3.6l-21.1,22.6
	c-1.1,2.7-3.8,4.3-6.7,4c-3.4-0.4-5.7-3.5-5.3-6.9l0,0C280.3,201.9,280.3,201.8,280.3,201.8z"/>
<path class="st9" d="M400,90.2c-0.3-0.4-0.7-0.8-1.1-1.2c-5.4-5.6-13.7-7.3-20.8-4.2c-0.3,0.1-0.7,0.3-1,0.5
	c-12,5.9-18.4,9.8-19.2,11.6c-0.3,0.6-0.5,1.2-0.7,1.8c-0.2,0.6-0.4,1.1-0.6,1.6c-0.9,2.1-2,3.5-4.7,2.9c-0.9-0.2-1.8-0.6-2.6-1
	c-0.4-0.2-0.7-0.4-1-0.6c-1.2-0.6-2-1.1-2.6-0.7c-0.5,0.4-0.6,1.4-0.1,3.9c0.2,1,0.1,2-0.1,3c-0.7,2.9-1.7,5.7-3.1,8.4
	c-2.1,4.1-4.4,8.1-7,12l-23.8,33.9l-1.6,2.3l-1.8,2.5l-14,20l0.8,0.8l3.5,3.6l0.8,0.8l0.7,0.7l1.8,1.9l1.7,1.7l37.9-30.9l4.2-3.5
	l7.6-6.2l15.5-12.6l29.4-27.2c3.7-3.4,5.9-8.3,6-13.4c0-0.2,0-0.3,0-0.5C404.3,97.8,402.8,93.6,400,90.2z"/>
<circle class="st5" cx="378" cy="31" r="26"/>
<path class="st1" d="M412.4,67c3.5,5,5.8,10.7,6.8,16.7c-2.8,1.8-6.1,2.7-9.4,2.7c-0.1-0.4-0.2-0.9-0.4-1.3c-1-3.4-2.4-6.6-4.3-9.6
	c0.3,3.2-0.2,6.5-1.3,9.5c-1.8-0.8-3.7-1.3-5.6-1.4c-1.6,0-3.1,0.4-4.5,1.1c-1.6-5.4-3.1-10.4-4.2-14c0,9-13.2,16.8-27.5,15.7
	c-0.5-0.3,4.7-15.1,4.2-15.4c-1.1-0.8-2.3-1.6-3.4-2.4c4.7-7.3,9.8-15,8.9-16.2c0.1,1.4-5.1,8.4-10.7,14.9
	C358,65,375.7,27.8,367,24.8c-0.1,1.3-2.1,1.3-4.4,1c-0.6-2.2-1.5-4.2-2.7-6.1c0.2,1.9-0.1,3.9-0.7,5.7c-2.3,0-4.6,0.2-6.9,0.7
	c-0.5-0.8-1.1-1.6-1.7-2.4c0.1,0.9,0,1.8-0.1,2.7c-2.3,0.5-4.2,1.1-4.5,1.6c-1.8-0.7,1.3-3.7,0.1-5.2c-2.9-3.9,1.4-9.6,4.1-13.6
	c5.6-8.2,17.7-11.1,26.4-6.1c0.4-1.3,2.4-2.2,4.9-2.8c1.1-0.2,2.2-0.3,3.3-0.3c11,0.2,26.3,9.3,26.9,20.3c0,1.1,0.1,2.3,0.2,3.6
	c0.8,12.3-0.2,23.6,8.2,32.6c3,3.3,3.1,18.7,1.9,26.6C419,79.9,416.8,67.5,412.4,67z"/>
<path class="st1" d="M161.6,41.8c-2.3,5.7-8.7,16.9-9.6,23l0.4-0.4c0.7,1.3,1.6,2.5,2.5,3.6c1.7-1.8,3.7-3.2,6-4.1
	c-1.2,2.5-2,5.3-2.1,8.1c2.4,7.6,13.7,4.2,20.3,3.4c6.6,7.5,15.3,9.5,26.8,5.2c3.2,0.3,6.8,0.5,9-1.4s0.9-5.4,2.1-8.1
	c8.6-18.9,0.7-25.7-6.1-34.3c-1.5-1.9-1.5-4.7-3.3-6.5c-2.5-2.5-6.3-3.3-9.9-3.9c1.9,0.1,3.7-0.8,4.7-2.3c0.9-1.6,0.9-3.5-0.1-5.1
	c-1.3-2.1-3.9-3.3-6.4-3.6c-2.5-0.2-5,0-7.5,0.6c-1.6,0.2-3.1,0.7-4.5,1.4c-1.4,0.7-2.1,2.2-1.9,3.7c0.4,1.4,1.5,2.5,2.8,3
	c1,0.4,2.1,0.7,3.2,0.9c-5.1-0.7-10.2,0.2-14.7,2.6C167.7,30.9,163.9,36.1,161.6,41.8z"/>
<circle class="st3" cx="192.4" cy="53.4" r="20.3"/>
<path class="st1" d="M172.8,42.5c1.2,3.6,4.5,4.7,7.6,5.4c1,0.2,2,0.4,3,0.6c0.4-0.5,0.8-0.9,1.2-1.3c1.7-1.8,3.7-3.2,6-4.1
	c-1,2-1.6,4.2-1.9,6.4c1.9,0.3,3.8,0.5,5.7,0.7c3.3,0.7,6.6-1.3,7.5-4.6c1.7,2.8,3.8,5.5,6.6,6.6c3.3,1.2,7,0.1,9-2.7
	c1.6-2.2,2.7-4.8,3.3-7.4c0.8-3.1,1.2-6.8-0.3-8.8c-1.2-1.6-3.4-1.6-5.4-1.5c-4.4,0.3-8.7,1.1-12.9,2.3l-0.4,0.8
	c0.7-4.4-0.8-8.6-3.8-10c-2-1-4.3-0.8-6.6-0.6c-3,0.1-5.9,0.7-8.7,1.7c-3.2,1.2-5.9,3.4-7.8,6.3C172.8,35.2,171.8,39.4,172.8,42.5z"
	/>
<path class="st1" d="M201.8,23.5c-0.2-0.1,0.3,0,0.1,0c0.1,0,0.2,0,0.3,0c0,0,0.2-0.1,0.1,0c0.3-0.1,0.6-0.3,0.8-0.5
	c0.5-0.6,0.9-1.3,1.1-2c0.3-0.9,0.8-1.8,1.5-2.5c0.7-0.7,1.8-0.7,2.5,0c0.1,0.1,0.2,0.3,0.3,0.4c0.3,0.9,0.2,1.9-0.2,2.8
	c-0.3,0.9-0.7,1.7-1.3,2.5c-0.9,1.2-2.2,2.2-3.7,2.7c-1.7,0.6-3.5,0.7-5.2,0.1c-0.6-0.3-1-1-0.7-1.7c0.1-0.3,0.3-0.5,0.6-0.7
	l2.9-1.2c0.6-0.3,1.4,0,1.7,0.6c0.3,0.6,0,1.4-0.6,1.7l0,0l0,0l-2.9,1.2l-0.1-2.3c0.4,0.1,0.7,0.2,1.1,0.2c0.4,0,0.8,0,1.2-0.1
	c0.4,0,0.7-0.1,1.1-0.3c0.2-0.1,0.5-0.2,0.7-0.3c0.1,0,0.2-0.1,0.2-0.1c0,0,0.3-0.2,0.2-0.1c0.4-0.2,0.7-0.5,1-0.8
	c0.1-0.1,0.2-0.2,0.3-0.3c0.2-0.2,0.3-0.4,0.5-0.6c0.3-0.5,0.5-1,0.7-1.5c0.1-0.2,0.1-0.4,0.2-0.7c0-0.1,0-0.2,0.1-0.4
	c0.1-0.3,0,0.2,0.1,0.3l0.5,0.4c0.2,0.1,0.4,0,0.6-0.1c0.1-0.1,0-0.1,0,0c-0.1,0.1-0.2,0.3-0.3,0.4c-0.2,0.4-0.4,0.7-0.5,1.1
	c-0.3,0.8-0.7,1.5-1.2,2.2c-1,1.5-2.7,2.1-4.4,1.7c-0.6-0.3-1-1-0.7-1.6C200.4,23.6,201.1,23.3,201.8,23.5z"/>
</svg>
