<svg width="19" height="19" viewBox="0 0 19 19" fill="none"
    xmlns="http://www.w3.org/2000/svg">
    <path d="M7.44446 7.41144V17.0894C7.44446 17.8823 8.09722 18.5 8.87895 18.5H10.1249C10.9067 18.5 11.5594 17.8823 11.5594 17.0894V7.41147L15.168 11.1026L15.1691 11.1037C15.7235 11.6671 16.6422 11.6796 17.21 11.1263L18.0725 10.2859C18.0729 10.2855 18.0732 10.2852 18.0736 10.2848C18.6436 9.73418 18.6404 8.83307 18.0744 8.28156L10.5108 0.911264C10.5105 0.910897 10.5101 0.91053 10.5097 0.910163C9.95186 0.361897 9.04982 0.364919 8.49107 0.909393L8.49097 0.909483L0.92634 8.28459C0.356427 8.83524 0.359607 9.73631 0.925559 10.2878L1.7881 11.1283C1.78844 11.1286 1.78877 11.1289 1.78911 11.1293C2.3573 11.6877 3.27772 11.6749 3.83214 11.1062C3.83232 11.106 3.83249 11.1059 3.83266 11.1057L7.44446 7.41144Z" fill="#302E42" stroke="#302E42"/>
</svg>
